<?xml version="1.0" encoding="UTF-8"?>
<svg version="1.1" xmlns="http://www.w3.org/2000/svg" width="320" height="320">
<path d="M0 0 C1.71589618 1.01911674 3.4318006 2.03822006 5.14830017 3.05632019 C6.90007002 4.09862761 8.64728212 5.14821979 10.39355469 6.19970703 C15.60920713 9.32745976 20.8677484 12.38038953 26.125 15.4375 C27.11395264 16.01532227 28.10290527 16.59314453 29.12182617 17.18847656 C35.49749797 20.91344638 41.89585934 24.59612186 48.3125 28.25 C58.98760985 34.33210423 69.61696064 40.49049124 80.20605469 46.72119141 C82.4673359 48.04754425 84.73595066 49.35987594 87.0078125 50.66796875 C94.68425589 55.18815239 100.92305354 59.09021788 103.38501358 68.01036644 C104.29351119 72.77005386 104.10687564 77.62354631 104.10302734 82.45239258 C104.10974457 83.66630173 104.11646179 84.88021088 104.12338257 86.13090515 C104.13907852 89.44518293 104.14573483 92.75921002 104.14701414 96.07350755 C104.14844051 98.14891193 104.15271927 100.22429042 104.15800858 102.29968834 C104.17648492 109.55373159 104.18468224 116.80770158 104.18310547 124.06176758 C104.18190485 130.80161032 104.2029975 137.54113244 104.2345928 144.2808941 C104.26082666 150.08582959 104.27146979 155.89066081 104.27019465 161.69565505 C104.26968708 165.15454162 104.27525554 168.61314298 104.29655075 172.07196999 C104.31968506 175.93457959 104.31036885 179.79675645 104.29833984 183.65942383 C104.30957886 184.79066681 104.32081787 185.92190979 104.33239746 187.08743286 C104.27137696 194.82549941 103.30033262 202.23321207 98.05586815 208.27303791 C92.78844543 213.32613835 86.25257719 216.62909134 79.875 220.0625 C77.62423353 221.29808397 75.37423396 222.53506597 73.125 223.7734375 C72.03703125 224.36995117 70.9490625 224.96646484 69.828125 225.58105469 C65.96947403 227.71655809 62.16405609 229.93142808 58.375 232.1875 C51.40540958 236.32418928 44.39745921 240.39119387 37.375 244.4375 C36.27792725 245.06970459 35.18085449 245.70190918 34.05053711 246.35327148 C31.79015661 247.65547749 29.52965692 248.95747663 27.26904297 250.25927734 C22.61457413 252.93992001 17.96118344 255.62242881 13.30834961 258.3059082 C11.13617658 259.55867954 8.96382686 260.8111446 6.79125977 262.06323242 C5.28970337 262.92911987 5.28970337 262.92911987 3.7578125 263.8125 C2.29420288 264.65385498 2.29420288 264.65385498 0.80102539 265.51220703 C-1.28527723 266.72536789 -3.36087311 267.95704725 -5.42797852 269.20263672 C-6.48170654 269.83443848 -7.53543457 270.46624023 -8.62109375 271.1171875 C-10.03733032 271.97739502 -10.03733032 271.97739502 -11.48217773 272.85498047 C-17.17343133 275.78971768 -22.24578157 275.93913899 -28.2890625 274.1484375 C-34.08648447 272.11553636 -39.15992431 268.95217718 -44.375 265.75 C-46.28407842 264.59197126 -48.19420533 263.43566895 -50.10546875 262.28125 C-50.99484131 261.74363037 -51.88421387 261.20601074 -52.80053711 260.65209961 C-55.5336438 259.04667548 -58.34511969 257.65088744 -61.1875 256.25 C-64.50743715 254.23731301 -67.78533541 252.16515004 -71.06640625 250.08984375 C-73.74421667 248.5113097 -76.27080509 247.2982721 -79.1875 246.25 C-79.1875 245.59 -79.1875 244.93 -79.1875 244.25 C-79.86941406 244.17523438 -80.55132812 244.10046875 -81.25390625 244.0234375 C-85.04134032 243.02488631 -87.9271511 241.05050108 -91.125 238.875 C-95.3779149 236.01822076 -99.56743963 233.49508958 -104.1875 231.25 C-106.11398842 230.16306049 -108.03059938 229.05844834 -109.9375 227.9375 C-110.98035156 227.32519531 -112.02320313 226.71289062 -113.09765625 226.08203125 C-116.6822709 223.95664026 -120.25053383 221.80507714 -123.81640625 219.6484375 C-126.12048862 218.28952236 -128.45582627 217.01494966 -130.8125 215.75 C-138.94233288 211.20304922 -144.44311816 207.4940698 -147.1875 198.25 C-147.71946523 194.01520888 -147.70475293 189.83702716 -147.6574707 185.57348633 C-147.6596611 184.33335281 -147.6618515 183.0932193 -147.66410828 181.81550598 C-147.66601392 178.43932953 -147.65021788 175.06414873 -147.62600732 171.68812013 C-147.60458923 168.14355409 -147.60530116 164.59898752 -147.60331726 161.05436707 C-147.59688681 155.10719322 -147.57570264 149.16022634 -147.54418945 143.21313477 C-147.5038472 135.59003017 -147.48648925 127.96706 -147.47688007 120.34386158 C-147.46856652 113.77205541 -147.45134061 107.2002774 -147.43184257 100.62849593 C-147.4278001 99.22196591 -147.42405955 97.81543499 -147.4206202 96.40890336 C-147.40929797 91.78532667 -147.38910532 87.16185959 -147.36450195 82.53833008 C-147.36181305 81.37714661 -147.35912415 80.21596313 -147.35635376 79.01959229 C-147.34919846 77.94733902 -147.34204315 76.87508575 -147.33467102 75.77033997 C-147.3282608 74.38029613 -147.3282608 74.38029613 -147.32172108 72.9621706 C-147.17504405 69.9983058 -146.72654227 67.16593419 -146.1875 64.25 C-145.5275 64.25 -144.8675 64.25 -144.1875 64.25 C-143.94 63.5075 -143.6925 62.765 -143.4375 62 C-140.5562535 55.6612577 -134.77003303 53.10497918 -128.9375 49.875 C-127.03194733 48.80315778 -125.12702321 47.7301975 -123.22265625 46.65625 C-122.23023926 46.09808594 -121.23782227 45.53992188 -120.21533203 44.96484375 C-115.24150755 42.1478672 -110.30838148 39.26204365 -105.375 36.375 C-104.38226074 35.79492188 -103.38952148 35.21484375 -102.36669922 34.6171875 C-99.30653991 32.82885305 -96.24701897 31.03942969 -93.1875 29.25 C-88.97983865 26.79051483 -84.77149427 24.33220338 -80.5625 21.875 C-79.55711182 21.28799316 -78.55172363 20.70098633 -77.51586914 20.09619141 C-71.05924387 16.33049739 -64.58035286 12.60718361 -58.08203125 8.9140625 C-55.36541705 7.35228429 -52.67915392 5.74999227 -50 4.125 C-44.8210431 0.99373611 -39.52719765 -1.90328422 -34.1875 -4.75 C-33.07375 -5.348125 -31.96 -5.94625 -30.8125 -6.5625 C-19.64468692 -11.61460592 -9.58842668 -5.85735606 0 0 Z M-75.1875 78.25 C-75.85394531 78.91128906 -76.52039063 79.57257813 -77.20703125 80.25390625 C-92.81064075 96.38915491 -97.77348014 116.63043436 -97.45703125 138.5625 C-96.88164541 155.61432864 -89.71050409 172.64599552 -78.1875 185.25 C-76.98673828 186.58804688 -76.98673828 186.58804688 -75.76171875 187.953125 C-61.26036752 203.31490373 -41.9869311 212.04450563 -20.88427734 212.6550293 C1.07006957 212.89192108 20.7261736 206.72046398 36.8125 191.25 C40.27416912 187.69509124 43.5734545 184.00897905 46.8125 180.25 C45.51296886 177.65093772 44.1799411 177.21880487 41.625 175.875 C37.8675233 173.85128814 34.36476656 171.61817771 30.8125 169.25 C24.62903438 165.49468919 24.62903438 165.49468919 17.8125 163.25 C17.8125 162.59 17.8125 161.93 17.8125 161.25 C14.60804312 161.83262852 13.00499885 162.74072976 10.6875 165 C1.95203475 172.7814851 -8.45374681 175.75340539 -19.94921875 175.578125 C-26.29637952 174.93498688 -32.69928995 173.05639449 -38.375 170.1171875 C-40.30365569 169.03420346 -40.30365569 169.03420346 -43.1875 169.25 C-43.43886719 168.67507812 -43.69023437 168.10015625 -43.94921875 167.5078125 C-45.34460463 164.96354423 -46.98695565 163.21117598 -49 161.125 C-57.92826149 151.11108783 -60.78982993 139.82089033 -60.03125 126.5078125 C-59.09333078 121.43944135 -56.75217434 117.01457793 -54.30859375 112.51171875 C-53.10105721 110.33439093 -53.10105721 110.33439093 -52.78515625 108.08203125 C-52.1875 106.25 -52.1875 106.25 -50.34375 105.20703125 C-49.6321875 104.89121094 -48.920625 104.57539063 -48.1875 104.25 C-46.99487324 103.1739254 -45.82959084 102.06706791 -44.6875 100.9375 C-36.57170496 93.64394311 -25.9987964 90.8220104 -15.28125 90.98046875 C-3.4530347 92.0109572 6.37863304 97.19511967 14.2734375 105.9921875 C16.19157968 108.36799167 18.03656038 110.76673772 19.8125 113.25 C28.31436972 109.99750535 36.0992478 105.14930829 43.9375 100.5625 C44.60120605 100.182146 45.26491211 99.80179199 45.94873047 99.40991211 C49.86433477 97.19118515 49.86433477 97.19118515 51.8125 93.25 C51.1525 93.25 50.4925 93.25 49.8125 93.25 C49.6578125 92.3528125 49.6578125 92.3528125 49.5 91.4375 C48.70755679 88.91608978 47.69306492 88.05534232 45.8125 86.25 C45.379375 85.321875 45.379375 85.321875 44.9375 84.375 C43.39253239 81.45672785 41.20925064 79.46282733 38.8125 77.25 C38.07902344 76.55777344 37.34554687 75.86554688 36.58984375 75.15234375 C35.79707031 74.42144531 35.00429687 73.69054687 34.1875 72.9375 C33.43210938 72.24011719 32.67671875 71.54273437 31.8984375 70.82421875 C29.84894747 68.94880553 29.84894747 68.94880553 26.8125 69.25 C26.8125 68.59 26.8125 67.93 26.8125 67.25 C25.8225 67.25 24.8325 67.25 23.8125 67.25 C23.8125 66.59 23.8125 65.93 23.8125 65.25 C-9.41247705 48.25561519 -48.54955486 49.61420898 -75.1875 78.25 Z M41.8125 119.25 C41.77157063 121.58297433 41.77008277 123.91705225 41.8125 126.25 C39.5025 125.92 37.1925 125.59 34.8125 125.25 C34.8125 127.56 34.8125 129.87 34.8125 132.25 C37.1225 132.25 39.4325 132.25 41.8125 132.25 C41.8125 136.87 41.8125 141.49 41.8125 146.25 C39.5025 145.92 37.1925 145.59 34.8125 145.25 C34.8125 147.56 34.8125 149.87 34.8125 152.25 C37.1225 152.25 39.4325 152.25 41.8125 152.25 C41.8125 154.56 41.8125 156.87 41.8125 159.25 C43.7925 159.25 45.7725 159.25 47.8125 159.25 C47.8125 156.94 47.8125 154.63 47.8125 152.25 C52.1025 152.25 56.3925 152.25 60.8125 152.25 C60.8125 154.56 60.8125 156.87 60.8125 159.25 C63.1225 159.25 65.4325 159.25 67.8125 159.25 C67.8125 156.94 67.8125 154.63 67.8125 152.25 C70.1225 152.25 72.4325 152.25 74.8125 152.25 C74.8125 149.94 74.8125 147.63 74.8125 145.25 C72.8325 145.25 70.8525 145.25 68.8125 145.25 C68.3175 139.31 68.3175 139.31 67.8125 133.25 C71.2775 132.755 71.2775 132.755 74.8125 132.25 C74.8125 130.27 74.8125 128.29 74.8125 126.25 C71.86520463 125.09188612 71.86520463 125.09188612 68.8125 125.25 C68.3175 121.785 68.3175 121.785 67.8125 118.25 C65.5025 118.25 63.1925 118.25 60.8125 118.25 C60.8125 120.56 60.8125 122.87 60.8125 125.25 C56.8525 125.25 52.8925 125.25 48.8125 125.25 C48.4825 122.94 48.1525 120.63 47.8125 118.25 C44.52319596 117.88314303 44.52319596 117.88314303 41.8125 119.25 Z " fill="#7F3987" transform="translate(182.1875,26.75)"/>
<path d="M0 0 C1.71589618 1.01911674 3.4318006 2.03822006 5.14830017 3.05632019 C6.90007002 4.09862761 8.64728212 5.14821979 10.39355469 6.19970703 C15.60920713 9.32745976 20.8677484 12.38038953 26.125 15.4375 C27.11395264 16.01532227 28.10290527 16.59314453 29.12182617 17.18847656 C35.49749797 20.91344638 41.89585934 24.59612186 48.3125 28.25 C58.98760985 34.33210423 69.61696064 40.49049124 80.20605469 46.72119141 C82.4673359 48.04754425 84.73595066 49.35987594 87.0078125 50.66796875 C100.41653197 58.56353591 100.41653197 58.56353591 102.6875 66.1875 C102.72875 66.868125 102.77 67.54875 102.8125 68.25 C102.11680908 68.50579834 101.42111816 68.76159668 100.7043457 69.02514648 C97.46867262 70.39562955 94.56586088 72.05534181 91.54296875 73.84765625 C90.94888214 74.19836685 90.35479553 74.54907745 89.7427063 74.91041565 C88.47823509 75.65713852 87.21462368 76.40531898 85.95181274 77.15484619 C82.68923064 79.08993992 79.41820161 81.01066988 76.1484375 82.93359375 C74.87467389 83.68342998 73.60091085 84.4332672 72.32714844 85.18310547 C67.93703712 87.76572357 63.54387776 90.34182119 59.125 92.875 C58.49166748 93.24633057 57.85833496 93.61766113 57.20581055 94.00024414 C55.77547002 94.81331191 54.29812058 95.54297473 52.8125 96.25 C52.1525 95.92 51.4925 95.59 50.8125 95.25 C51.1425 94.59 51.4725 93.93 51.8125 93.25 C51.1525 93.25 50.4925 93.25 49.8125 93.25 C49.4103125 91.7959375 49.4103125 91.7959375 49 90.3125 C48.608125 89.301875 48.21625 88.29125 47.8125 87.25 C46.8225 86.92 45.8325 86.59 44.8125 86.25 C44.4825 85.26 44.1525 84.27 43.8125 83.25 C42.19422544 81.4800122 40.57159026 79.8728227 38.8125 78.25 C37.71035156 77.22712891 37.71035156 77.22712891 36.5859375 76.18359375 C32.17196889 71.95192804 32.17196889 71.95192804 26.8125 69.25 C26.8125 68.59 26.8125 67.93 26.8125 67.25 C25.8225 67.25 24.8325 67.25 23.8125 67.25 C23.8125 66.59 23.8125 65.93 23.8125 65.25 C23.26722656 65.07984375 22.72195312 64.9096875 22.16015625 64.734375 C18.16225039 63.4495779 14.34674857 62.07542603 10.5625 60.25 C-6.45817141 52.69816627 -27.87045619 52.61916746 -45.1875 59.25 C-54.34254736 62.72269962 -54.34254736 62.72269962 -62.1875 68.25 C-63.46522414 69.26775429 -64.75863835 70.26595347 -66.0625 71.25 C-66.74054688 71.765625 -67.41859375 72.28125 -68.1171875 72.8125 C-70.1875 74.25 -70.1875 74.25 -72.3203125 75.1875 C-74.68415253 76.53261399 -75.07895465 77.80845176 -76.1875 80.25 C-77.20039909 81.38061439 -78.24535062 82.48294191 -79.3125 83.5625 C-93.7072863 99.73033931 -97.06250424 120.61994812 -96.35791016 141.50439453 C-95.55214925 154.48661106 -90.00710421 165.83679564 -84.1875 177.25 C-84.75782959 177.52175049 -85.32815918 177.79350098 -85.91577148 178.07348633 C-92.65252225 181.35511524 -99.08777934 185.04370188 -105.51239014 188.89651489 C-107.28370308 189.95769119 -109.05859083 191.01265198 -110.83447266 192.06616211 C-116.09692847 195.1910636 -121.34538485 198.33520535 -126.55078125 201.5546875 C-127.32607178 202.02817627 -128.1013623 202.50166504 -128.90014648 202.98950195 C-130.29920782 203.84549307 -131.69124281 204.71312232 -133.07446289 205.59448242 C-135.68571062 207.18239869 -137.83092407 208.20917464 -140.8828125 208.55859375 C-144.81017443 206.32865096 -145.8991581 202.44330207 -147.1875 198.25 C-147.72595957 194.01607176 -147.70475136 189.83688531 -147.6574707 185.57348633 C-147.6596611 184.33335281 -147.6618515 183.0932193 -147.66410828 181.81550598 C-147.66601392 178.43932953 -147.65021788 175.06414873 -147.62600732 171.68812013 C-147.60458923 168.14355409 -147.60530116 164.59898752 -147.60331726 161.05436707 C-147.59688681 155.10719322 -147.57570264 149.16022634 -147.54418945 143.21313477 C-147.5038472 135.59003017 -147.48648925 127.96706 -147.47688007 120.34386158 C-147.46856652 113.77205541 -147.45134061 107.2002774 -147.43184257 100.62849593 C-147.4278001 99.22196591 -147.42405955 97.81543499 -147.4206202 96.40890336 C-147.40929797 91.78532667 -147.38910532 87.16185959 -147.36450195 82.53833008 C-147.36181305 81.37714661 -147.35912415 80.21596313 -147.35635376 79.01959229 C-147.34919846 77.94733902 -147.34204315 76.87508575 -147.33467102 75.77033997 C-147.3282608 74.38029613 -147.3282608 74.38029613 -147.32172108 72.9621706 C-147.17504405 69.9983058 -146.72654227 67.16593419 -146.1875 64.25 C-145.5275 64.25 -144.8675 64.25 -144.1875 64.25 C-143.94 63.5075 -143.6925 62.765 -143.4375 62 C-140.5562535 55.6612577 -134.77003303 53.10497918 -128.9375 49.875 C-127.03194733 48.80315778 -125.12702321 47.7301975 -123.22265625 46.65625 C-122.23023926 46.09808594 -121.23782227 45.53992188 -120.21533203 44.96484375 C-115.24150755 42.1478672 -110.30838148 39.26204365 -105.375 36.375 C-104.38226074 35.79492188 -103.38952148 35.21484375 -102.36669922 34.6171875 C-99.30653991 32.82885305 -96.24701897 31.03942969 -93.1875 29.25 C-88.97983865 26.79051483 -84.77149427 24.33220338 -80.5625 21.875 C-79.55711182 21.28799316 -78.55172363 20.70098633 -77.51586914 20.09619141 C-71.05924387 16.33049739 -64.58035286 12.60718361 -58.08203125 8.9140625 C-55.36541705 7.35228429 -52.67915392 5.74999227 -50 4.125 C-44.8210431 0.99373611 -39.52719765 -1.90328422 -34.1875 -4.75 C-33.07375 -5.348125 -31.96 -5.94625 -30.8125 -6.5625 C-19.64468692 -11.61460592 -9.58842668 -5.85735606 0 0 Z " fill="#9A5096" transform="translate(182.1875,26.75)"/>
<path d="M0 0 C1.3515625 1.3984375 1.3515625 1.3984375 2.625 3.375 C13.88438044 19.26729259 31.07053007 29.52030917 50.0625 33.4921875 C72.58621094 36.39703117 93.27012432 32.8304062 112.09765625 19.8671875 C118.8134869 14.5965356 124.44372012 8.44817731 130 2 C131.65 2.66 133.3 3.32 135 4 C135 4.66 135 5.32 135 6 C136.65 6.33 138.3 6.66 140 7 C140 7.66 140 8.32 140 9 C141.65 9.33 143.3 9.66 145 10 C145 10.66 145 11.32 145 12 C146.65 12.33 148.3 12.66 150 13 C150 13.66 150 14.32 150 15 C150.66386719 15.07347656 151.32773438 15.14695313 152.01171875 15.22265625 C156.06730423 16.27763862 159.25750503 18.26368011 162.8125 20.4375 C163.50537109 20.84548828 164.19824219 21.25347656 164.91210938 21.67382812 C166.64655453 22.72133047 168.32877914 23.85432029 170 25 C170 25.66 170 26.32 170 27 C170.721875 27.0825 171.44375 27.165 172.1875 27.25 C175.55313254 28.14750201 177.41612816 29.7114278 180 32 C173.18189693 36.70704508 166.13257127 40.89841998 158.9375 45 C156.6129802 46.33281249 154.28876911 47.66615243 151.96484375 49 C151.37947845 49.33555908 150.79411316 49.67111816 150.19100952 50.0168457 C144.44265452 53.31385304 138.71983777 56.6538496 133 60 C123.60489852 65.4913992 114.18813984 70.94418068 104.75268555 76.3659668 C99.23725168 79.53895124 93.73977631 82.73791487 88.26953125 85.98828125 C87.18478516 86.63023437 86.10003906 87.2721875 84.98242188 87.93359375 C82.92641095 89.1522521 80.87407953 90.37714802 78.82617188 91.609375 C70.76914105 96.37519003 64.39154199 99.21305462 55 97 C47.85813678 93.96923822 41.22792467 89.85317024 34.625 85.8125 C32.88882111 84.75519518 31.15187099 83.69915549 29.4140625 82.64453125 C28.28411865 81.95387573 28.28411865 81.95387573 27.13134766 81.24926758 C25.12268481 80.07191044 23.08697889 79.0299171 21 78 C18.00654612 76.29194989 15.02221417 74.56997008 12.04492188 72.83398438 C9.38240695 71.29671589 6.92578814 69.97526271 4 69 C4 68.34 4 67.68 4 67 C3.31808594 66.92523438 2.63617188 66.85046875 1.93359375 66.7734375 C-1.85384032 65.77488631 -4.7396511 63.80050108 -7.9375 61.625 C-12.1904149 58.76822076 -16.37993963 56.24508958 -21 54 C-22.92648842 52.91306049 -24.84309938 51.80844834 -26.75 50.6875 C-27.79285156 50.07519531 -28.83570313 49.46289062 -29.91015625 48.83203125 C-33.4913316 46.70867949 -37.05679863 44.56032864 -40.6171875 42.40234375 C-43.65315216 40.61560389 -46.75947538 38.97685408 -49.89453125 37.37109375 C-52.63909269 35.58381905 -54.74665866 33.36345226 -57 31 C-56.03066528 30.4440918 -56.03066528 30.4440918 -55.04174805 29.87695312 C-51.92254956 28.086571 -48.80490914 26.29349594 -45.6875 24.5 C-45.11408875 24.17063446 -44.54067749 23.84126892 -43.94989014 23.50192261 C-37.06247007 19.54400153 -30.20531213 15.54302654 -23.40234375 11.44140625 C-22.17163375 10.70181811 -20.9409209 9.96223471 -19.71020508 9.22265625 C-17.34604709 7.80116405 -14.98924892 6.36832923 -12.63549805 4.9296875 C-11.0254187 3.96095703 -11.0254187 3.96095703 -9.3828125 2.97265625 C-8.43809082 2.39781494 -7.49336914 1.82297363 -6.52001953 1.23071289 C-4 0 -4 0 0 0 Z " fill="#672279" transform="translate(99,204)"/>
<path d="M0 0 C6.28526185 4.92727827 11.2354854 9.75173657 14.125 17.25 C1.43420041 24.77575056 -11.27048636 32.27481355 -24.06054688 39.63085938 C-26.15636787 40.83657457 -28.25136388 42.04366953 -30.34570312 43.25195312 C-33.5117245 45.07810029 -36.67998105 46.90032126 -39.84954834 48.7203064 C-41.10655984 49.44271357 -42.36295909 50.16618722 -43.61871338 50.89077759 C-45.38724714 51.91080831 -47.15816363 52.92657968 -48.9296875 53.94140625 C-50.46858643 54.82614624 -50.46858643 54.82614624 -52.03857422 55.72875977 C-54.60812903 57.10687098 -57.14567888 58.23284419 -59.875 59.25 C-66.31967099 49.86672117 -68.56158088 39.72170981 -67.64453125 28.40625 C-67.21245744 26.24957391 -66.65306202 24.30477152 -65.875 22.25 C-65.50955078 21.23292969 -65.50955078 21.23292969 -65.13671875 20.1953125 C-63.27949438 15.45224719 -63.27949438 15.45224719 -60.875 14.25 C-60.66875 13.38375 -60.4625 12.5175 -60.25 11.625 C-57.06266691 3.80154604 -48.21449752 -1.15647747 -40.875 -4.75 C-26.78959866 -10.18002428 -12.46974818 -8.67757819 0 0 Z " fill="#9A4F96" transform="translate(188.875,124.75)"/>
<path d="M0 0 C0 0.66 0 1.32 0 2 C0.71542969 2.10441406 1.43085938 2.20882812 2.16796875 2.31640625 C5.31163677 3.07522267 7.55215773 4.26493706 10.3125 5.9375 C11.19550781 6.46214844 12.07851562 6.98679688 12.98828125 7.52734375 C13.65214844 8.01332031 14.31601563 8.49929687 15 9 C15 9.66 15 10.32 15 11 C17.475 11.495 17.475 11.495 20 12 C20 12.66 20 13.32 20 14 C22.475 14.495 22.475 14.495 25 15 C25 15.66 25 16.32 25 17 C25.763125 17.12375 26.52625 17.2475 27.3125 17.375 C30 18 30 18 33 20 C32.11450392 25.08340345 29.06894831 27.13257085 25 30 C14.47128446 36.2386058 3.75516115 39.03352141 -8.4140625 36.20703125 C-11.6528481 35.23539557 -14.82282974 34.15572234 -18 33 C-18.70253906 32.78472656 -19.40507812 32.56945312 -20.12890625 32.34765625 C-26.08031966 30.31059528 -30.3109818 25.17447395 -33.19921875 19.74609375 C-33.59560547 18.88177734 -33.59560547 18.88177734 -34 18 C-29.68038167 15.31056807 -25.34390135 12.64992373 -21 10 C-20.26749023 9.55108398 -19.53498047 9.10216797 -18.78027344 8.63964844 C-16.50507425 7.25005815 -14.22232039 5.87370174 -11.9375 4.5 C-11.21183838 4.05479004 -10.48617676 3.60958008 -9.73852539 3.15087891 C-9.05008545 2.74015137 -8.36164551 2.32942383 -7.65234375 1.90625 C-7.04382568 1.53822266 -6.43530762 1.17019531 -5.80834961 0.79101562 C-4 0 -4 0 0 0 Z " fill="#672279" transform="translate(164,166)"/>
<path d="M0 0 C3.09244792 0.03255208 6.18489583 0.06510417 9.27734375 0.09765625 C9.27734375 4.71765625 9.27734375 9.33765625 9.27734375 14.09765625 C-0 14.1953125 -0 14.1953125 -2.72265625 14.09765625 C-3.72265625 13.09765625 -3.72265625 13.09765625 -3.85546875 10.41015625 C-3.85289062 9.31703125 -3.8503125 8.22390625 -3.84765625 7.09765625 C-3.85023438 6.00453125 -3.8528125 4.91140625 -3.85546875 3.78515625 C-3.67583417 0.15019765 -3.64305585 0.13066915 0 0 Z " fill="#7E4682" transform="translate(233.72265625,158.90234375)"/>
<path d="M0 0 C2.05078125 0.03255208 4.1015625 0.06510417 6.15234375 0.09765625 C6.15234375 3.06765625 6.15234375 6.03765625 6.15234375 9.09765625 C3.18234375 9.09765625 0.21234375 9.09765625 -2.84765625 9.09765625 C-2.9453125 2.9453125 -2.9453125 2.9453125 -2.84765625 1.09765625 C-1.84765625 0.09765625 -1.84765625 0.09765625 0 0 Z " fill="#7F3687" transform="translate(234.84765625,160.90234375)"/>
<path d="M0 0 C5.94 0 11.88 0 18 0 C18 0.66 18 1.32 18 2 C12.10489243 3.17902151 5.29141841 4.52761227 0 1 C0 0.67 0 0.34 0 0 Z " fill="#A57FA5" transform="translate(156,79)"/>
<path d="M0 0 C0.33 0 0.66 0 1 0 C1.33 2.97 1.66 5.94 2 9 C5.63 9.33 9.26 9.66 13 10 C13 10.66 13 11.32 13 12 C11.02090602 12.02686553 9.04171029 12.04633375 7.0625 12.0625 C5.96035156 12.07410156 4.85820312 12.08570313 3.72265625 12.09765625 C1 12 1 12 0 11 C-0.07226502 9.14712498 -0.0838122 7.29166122 -0.0625 5.4375 C-0.05347656 4.42558594 -0.04445312 3.41367188 -0.03515625 2.37109375 C-0.02355469 1.58863281 -0.01195312 0.80617187 0 0 Z " fill="#B6A5B8" transform="translate(230,161)"/>
<path d="M0 0 C2.05078125 0.03255208 4.1015625 0.06510417 6.15234375 0.09765625 C5.49234375 0.75765625 4.83234375 1.41765625 4.15234375 2.09765625 C2.83234375 2.09765625 1.51234375 2.09765625 0.15234375 2.09765625 C0.15234375 4.40765625 0.15234375 6.71765625 0.15234375 9.09765625 C-1.49765625 8.76765625 -3.14765625 8.43765625 -4.84765625 8.09765625 C-4.18765625 7.76765625 -3.52765625 7.43765625 -2.84765625 7.09765625 C-2.86828125 6.12828125 -2.88890625 5.15890625 -2.91015625 4.16015625 C-2.82830587 0.14948763 -2.82830587 0.14948763 0 0 Z " fill="#906492" transform="translate(243.84765625,143.90234375)"/>
<path d="M0 0 C8.44646925 6.15034169 8.44646925 6.15034169 12 10 C8.6981081 10 6.80322546 9.77977363 4.39453125 7.44140625 C3.87246094 6.82136719 3.35039062 6.20132813 2.8125 5.5625 C2.01779297 4.63630859 2.01779297 4.63630859 1.20703125 3.69140625 C0 2 0 2 0 0 Z " fill="#6B3F76" transform="translate(133,187)"/>
<path d="M0 0 C5.28498887 2.74819421 8.93797347 5.64075202 13 10 C12.67 10.66 12.34 11.32 12 12 C9.95880212 10.38405168 7.95927063 8.7143618 6 7 C6 6.34 6 5.68 6 5 C5.38125 4.690625 4.7625 4.38125 4.125 4.0625 C2.75 3.375 1.375 2.6875 0 2 C0 1.34 0 0.68 0 0 Z " fill="#8C5B8B" transform="translate(185,123)"/>
<path d="M0 0 C0.66 0 1.32 0 2 0 C2 2.31 2 4.62 2 7 C2.66 7 3.32 7 4 7 C4 7.66 4 8.32 4 9 C2.68 8.67 1.36 8.34 0 8 C0 5.36 0 2.72 0 0 Z " fill="#845189" transform="translate(250,144)"/>
<path d="M0 0 C1.12588014 0.95729916 2.2506715 1.91587895 3.375 2.875 C4.00148438 3.40867188 4.62796875 3.94234375 5.2734375 4.4921875 C6.55836651 5.61432007 7.79371975 6.79371975 9 8 C5.41209425 7.70100785 4.21833224 7.23013399 1.6875 4.5625 C0 2 0 2 0 0 Z " fill="#72477C" transform="translate(108,216)"/>
<path d="" fill="#DAE3DD" transform="translate(0,0)"/>
</svg>
