<?xml version="1.0" encoding="UTF-8"?>
<svg xmlns="http://www.w3.org/2000/svg" xmlns:xlink="http://www.w3.org/1999/xlink" width="250px" height="250px" viewBox="0 0 250 250" version="1.1">
<g id="surface1">
<path style=" stroke:none;fill-rule:nonzero;fill:rgb(49.803922%,22.352941%,52.941179%);fill-opacity:1;" d="M 142.335938 20.898438 C 143.675781 21.695312 145.015625 22.492188 146.355469 23.285156 C 147.726562 24.101562 149.089844 24.921875 150.453125 25.742188 C 154.527344 28.183594 158.636719 30.570312 162.742188 32.960938 C 163.515625 33.410156 164.289062 33.863281 165.085938 34.328125 C 170.066406 37.238281 175.066406 40.113281 180.078125 42.96875 C 188.417969 47.71875 196.722656 52.53125 204.996094 57.398438 C 206.761719 58.4375 208.535156 59.460938 210.308594 60.484375 C 216.304688 64.015625 221.179688 67.0625 223.105469 74.03125 C 223.8125 77.75 223.667969 81.542969 223.664062 85.3125 C 223.667969 86.261719 223.675781 87.210938 223.679688 88.1875 C 223.691406 90.777344 223.699219 93.367188 223.699219 95.957031 C 223.699219 97.578125 223.703125 99.199219 223.707031 100.820312 C 223.722656 106.488281 223.726562 112.15625 223.726562 117.820312 C 223.726562 123.085938 223.742188 128.351562 223.765625 133.617188 C 223.789062 138.152344 223.796875 142.6875 223.796875 147.222656 C 223.792969 149.925781 223.800781 152.628906 223.816406 155.328125 C 223.832031 158.347656 223.828125 161.363281 223.816406 164.382812 C 223.824219 165.265625 223.835938 166.148438 223.84375 167.058594 C 223.796875 173.105469 223.039062 178.894531 218.941406 183.613281 C 214.824219 187.558594 209.71875 190.140625 204.734375 192.820312 C 202.976562 193.789062 201.21875 194.753906 199.460938 195.722656 C 198.613281 196.1875 197.761719 196.652344 196.886719 197.132812 C 193.871094 198.800781 190.898438 200.53125 187.9375 202.296875 C 182.496094 205.527344 177.019531 208.703125 171.53125 211.867188 C 170.675781 212.359375 169.820312 212.851562 168.9375 213.363281 C 167.171875 214.378906 165.402344 215.394531 163.636719 216.414062 C 160 218.507812 156.367188 220.601562 152.730469 222.699219 C 151.035156 223.679688 149.335938 224.65625 147.640625 225.636719 C 146.464844 226.3125 146.464844 226.3125 145.269531 227 C 144.125 227.660156 144.125 227.660156 142.960938 228.328125 C 141.328125 229.277344 139.707031 230.238281 138.09375 231.214844 C 137.269531 231.707031 136.445312 232.199219 135.597656 232.707031 C 134.492188 233.378906 134.492188 233.378906 133.363281 234.066406 C 128.917969 236.359375 124.953125 236.476562 120.234375 235.078125 C 115.703125 233.488281 111.742188 231.015625 107.664062 228.515625 C 106.175781 227.609375 104.683594 226.707031 103.1875 225.804688 C 102.496094 225.386719 101.800781 224.964844 101.082031 224.53125 C 98.949219 223.277344 96.75 222.1875 94.53125 221.09375 C 91.9375 219.519531 89.375 217.902344 86.8125 216.28125 C 84.722656 215.046875 82.746094 214.101562 80.46875 213.28125 C 80.46875 212.765625 80.46875 212.25 80.46875 211.71875 C 79.9375 211.660156 79.402344 211.601562 78.855469 211.542969 C 75.894531 210.761719 73.640625 209.21875 71.144531 207.519531 C 67.820312 205.289062 64.546875 203.316406 60.9375 201.5625 C 59.433594 200.714844 57.933594 199.851562 56.445312 198.976562 C 55.628906 198.496094 54.816406 198.019531 53.976562 197.523438 C 51.175781 195.863281 48.386719 194.183594 45.601562 192.5 C 43.800781 191.4375 41.976562 190.441406 40.136719 189.453125 C 33.785156 185.902344 29.488281 183.003906 27.34375 175.78125 C 26.929688 172.472656 26.941406 169.207031 26.976562 165.878906 C 26.976562 164.910156 26.972656 163.941406 26.972656 162.941406 C 26.96875 160.304688 26.980469 157.667969 27 155.03125 C 27.019531 152.261719 27.015625 149.492188 27.019531 146.722656 C 27.023438 142.074219 27.039062 137.429688 27.066406 132.785156 C 27.097656 126.828125 27.109375 120.871094 27.117188 114.917969 C 27.125 109.78125 27.136719 104.648438 27.152344 99.515625 C 27.15625 98.414062 27.160156 97.316406 27.160156 96.21875 C 27.171875 92.605469 27.1875 88.992188 27.207031 85.382812 C 27.207031 84.472656 27.210938 83.566406 27.210938 82.632812 C 27.21875 81.792969 27.222656 80.957031 27.230469 80.09375 C 27.234375 79.007812 27.234375 79.007812 27.238281 77.898438 C 27.351562 75.585938 27.703125 73.371094 28.125 71.09375 C 28.640625 71.09375 29.15625 71.09375 29.6875 71.09375 C 29.882812 70.515625 30.074219 69.933594 30.273438 69.335938 C 32.523438 64.382812 37.042969 62.386719 41.601562 59.863281 C 43.089844 59.027344 44.578125 58.1875 46.066406 57.347656 C 46.839844 56.914062 47.617188 56.476562 48.414062 56.027344 C 52.300781 53.828125 56.15625 51.570312 60.011719 49.316406 C 60.785156 48.863281 61.5625 48.410156 62.359375 47.941406 C 64.75 46.546875 67.140625 45.148438 69.53125 43.75 C 72.820312 41.828125 76.105469 39.90625 79.394531 37.988281 C 80.179688 37.53125 80.964844 37.070312 81.773438 36.597656 C 86.820312 33.65625 91.878906 30.746094 96.957031 27.863281 C 99.078125 26.640625 101.179688 25.390625 103.273438 24.121094 C 107.316406 21.675781 111.453125 19.410156 115.625 17.1875 C 116.496094 16.71875 117.367188 16.253906 118.261719 15.773438 C 126.988281 11.824219 134.84375 16.324219 142.335938 20.898438 Z M 83.59375 82.03125 C 83.074219 82.546875 82.550781 83.066406 82.015625 83.597656 C 69.824219 96.203125 65.949219 112.015625 66.195312 129.148438 C 66.644531 142.472656 72.246094 155.777344 81.25 165.625 C 82.1875 166.671875 82.1875 166.671875 83.144531 167.738281 C 94.472656 179.738281 109.53125 186.558594 126.019531 187.035156 C 143.171875 187.21875 158.527344 182.398438 171.09375 170.3125 C 173.796875 167.535156 176.375 164.65625 178.90625 161.71875 C 177.890625 159.6875 176.847656 159.351562 174.851562 158.300781 C 171.917969 156.71875 169.179688 154.976562 166.40625 153.125 C 161.574219 150.191406 161.574219 150.191406 156.25 148.4375 C 156.25 147.921875 156.25 147.40625 156.25 146.875 C 153.746094 147.332031 152.492188 148.039062 150.683594 149.804688 C 143.859375 155.882812 135.730469 158.207031 126.75 158.070312 C 121.789062 157.566406 116.789062 156.097656 112.351562 153.800781 C 110.847656 152.957031 110.847656 152.957031 108.59375 153.125 C 108.398438 152.675781 108.199219 152.226562 108 151.765625 C 106.910156 149.777344 105.625 148.40625 104.054688 146.777344 C 97.078125 138.953125 94.84375 130.132812 95.433594 119.734375 C 96.167969 115.773438 97.996094 112.316406 99.90625 108.796875 C 100.847656 107.097656 100.847656 107.097656 101.09375 105.335938 C 101.5625 103.90625 101.5625 103.90625 103.003906 103.089844 C 103.558594 102.84375 104.113281 102.597656 104.6875 102.34375 C 105.621094 101.503906 106.53125 100.636719 107.421875 99.757812 C 113.761719 94.058594 122.023438 91.851562 130.394531 91.976562 C 139.636719 92.78125 147.316406 96.832031 153.484375 103.703125 C 154.984375 105.5625 156.425781 107.433594 157.8125 109.375 C 164.453125 106.835938 170.535156 103.046875 176.660156 99.460938 C 177.179688 99.164062 177.695312 98.867188 178.230469 98.5625 C 181.289062 96.828125 181.289062 96.828125 182.8125 93.75 C 182.296875 93.75 181.78125 93.75 181.25 93.75 C 181.128906 93.050781 181.128906 93.050781 181.007812 92.335938 C 180.386719 90.363281 179.59375 89.691406 178.125 88.28125 C 177.785156 87.554688 177.785156 87.554688 177.441406 86.816406 C 176.234375 84.535156 174.527344 82.980469 172.65625 81.25 C 172.082031 80.710938 171.511719 80.167969 170.917969 79.609375 C 170.300781 79.039062 169.679688 78.46875 169.042969 77.882812 C 168.453125 77.335938 167.863281 76.792969 167.253906 76.230469 C 165.652344 74.765625 165.652344 74.765625 163.28125 75 C 163.28125 74.484375 163.28125 73.96875 163.28125 73.4375 C 162.507812 73.4375 161.734375 73.4375 160.9375 73.4375 C 160.9375 72.921875 160.9375 72.40625 160.9375 71.875 C 134.980469 58.597656 104.40625 59.660156 83.59375 82.03125 Z M 175 114.0625 C 174.96875 115.886719 174.96875 117.707031 175 119.53125 C 173.195312 119.273438 171.390625 119.015625 169.53125 118.75 C 169.53125 120.554688 169.53125 122.359375 169.53125 124.21875 C 171.335938 124.21875 173.140625 124.21875 175 124.21875 C 175 127.828125 175 131.4375 175 135.15625 C 173.195312 134.898438 171.390625 134.640625 169.53125 134.375 C 169.53125 136.179688 169.53125 137.984375 169.53125 139.84375 C 171.335938 139.84375 173.140625 139.84375 175 139.84375 C 175 141.648438 175 143.453125 175 145.3125 C 176.546875 145.3125 178.09375 145.3125 179.6875 145.3125 C 179.6875 143.507812 179.6875 141.703125 179.6875 139.84375 C 183.039062 139.84375 186.390625 139.84375 189.84375 139.84375 C 189.84375 141.648438 189.84375 143.453125 189.84375 145.3125 C 191.648438 145.3125 193.453125 145.3125 195.3125 145.3125 C 195.3125 143.507812 195.3125 141.703125 195.3125 139.84375 C 197.117188 139.84375 198.921875 139.84375 200.78125 139.84375 C 200.78125 138.039062 200.78125 136.234375 200.78125 134.375 C 199.234375 134.375 197.6875 134.375 196.09375 134.375 C 195.707031 129.734375 195.707031 129.734375 195.3125 125 C 198.019531 124.613281 198.019531 124.613281 200.78125 124.21875 C 200.78125 122.671875 200.78125 121.125 200.78125 119.53125 C 198.480469 118.625 198.480469 118.625 196.09375 118.75 C 195.707031 116.042969 195.707031 116.042969 195.3125 113.28125 C 193.507812 113.28125 191.703125 113.28125 189.84375 113.28125 C 189.84375 115.085938 189.84375 116.890625 189.84375 118.75 C 186.75 118.75 183.65625 118.75 180.46875 118.75 C 180.210938 116.945312 179.953125 115.140625 179.6875 113.28125 C 177.117188 112.996094 177.117188 112.996094 175 114.0625 Z M 175 114.0625 "/>
<path style=" stroke:none;fill-rule:nonzero;fill:rgb(60.392159%,31.37255%,58.823532%);fill-opacity:1;" d="M 142.335938 20.898438 C 143.675781 21.695312 145.015625 22.492188 146.355469 23.285156 C 147.726562 24.101562 149.089844 24.921875 150.453125 25.742188 C 154.527344 28.183594 158.636719 30.570312 162.742188 32.960938 C 163.515625 33.410156 164.289062 33.863281 165.085938 34.328125 C 170.066406 37.238281 175.066406 40.113281 180.078125 42.96875 C 188.417969 47.71875 196.722656 52.53125 204.996094 57.398438 C 206.761719 58.4375 208.535156 59.460938 210.308594 60.484375 C 220.785156 66.652344 220.785156 66.652344 222.558594 72.609375 C 222.589844 73.140625 222.625 73.671875 222.65625 74.21875 C 222.113281 74.417969 221.570312 74.617188 221.007812 74.824219 C 218.480469 75.894531 216.214844 77.191406 213.851562 78.59375 C 213.386719 78.867188 212.921875 79.140625 212.445312 79.421875 C 211.457031 80.003906 210.46875 80.589844 209.484375 81.175781 C 206.933594 82.6875 204.378906 84.1875 201.824219 85.691406 C 200.828125 86.277344 199.835938 86.863281 198.839844 87.449219 C 195.410156 89.464844 191.976562 91.476562 188.523438 93.457031 C 188.03125 93.746094 187.535156 94.039062 187.027344 94.335938 C 185.910156 94.972656 184.753906 95.542969 183.59375 96.09375 C 183.078125 95.835938 182.5625 95.578125 182.03125 95.3125 C 182.289062 94.796875 182.546875 94.28125 182.8125 93.75 C 182.296875 93.75 181.78125 93.75 181.25 93.75 C 180.9375 92.613281 180.9375 92.613281 180.617188 91.453125 C 180.308594 90.664062 180.003906 89.875 179.6875 89.0625 C 178.914062 88.804688 178.140625 88.546875 177.34375 88.28125 C 177.085938 87.507812 176.828125 86.734375 176.5625 85.9375 C 175.296875 84.554688 174.03125 83.300781 172.65625 82.03125 C 171.796875 81.230469 171.796875 81.230469 170.917969 80.417969 C 167.46875 77.109375 167.46875 77.109375 163.28125 75 C 163.28125 74.484375 163.28125 73.96875 163.28125 73.4375 C 162.507812 73.4375 161.734375 73.4375 160.9375 73.4375 C 160.9375 72.921875 160.9375 72.40625 160.9375 71.875 C 160.511719 71.742188 160.085938 71.609375 159.648438 71.472656 C 156.523438 70.46875 153.542969 69.394531 150.585938 67.96875 C 137.289062 62.070312 120.558594 62.007812 107.03125 67.1875 C 99.878906 69.902344 99.878906 69.902344 93.75 74.21875 C 92.75 75.015625 91.742188 75.792969 90.722656 76.5625 C 90.191406 76.964844 89.664062 77.367188 89.117188 77.78125 C 87.5 78.90625 87.5 78.90625 85.832031 79.640625 C 83.988281 80.691406 83.679688 81.6875 82.8125 83.59375 C 82.019531 84.476562 81.203125 85.339844 80.371094 86.179688 C 69.125 98.8125 66.503906 115.132812 67.054688 131.449219 C 67.683594 141.589844 72.015625 150.457031 76.5625 159.375 C 76.117188 159.585938 75.671875 159.800781 75.210938 160.019531 C 69.949219 162.582031 64.921875 165.464844 59.902344 168.472656 C 58.519531 169.304688 57.132812 170.128906 55.746094 170.949219 C 51.632812 173.390625 47.53125 175.847656 43.464844 178.363281 C 42.859375 178.734375 42.253906 179.101562 41.628906 179.484375 C 40.539062 180.152344 39.449219 180.832031 38.371094 181.519531 C 36.328125 182.757812 34.652344 183.5625 32.269531 183.835938 C 29.199219 182.09375 28.351562 179.058594 27.34375 175.78125 C 26.921875 172.472656 26.941406 169.207031 26.976562 165.878906 C 26.976562 164.910156 26.972656 163.941406 26.972656 162.941406 C 26.96875 160.304688 26.980469 157.667969 27 155.03125 C 27.019531 152.261719 27.015625 149.492188 27.019531 146.722656 C 27.023438 142.074219 27.039062 137.429688 27.066406 132.785156 C 27.097656 126.828125 27.109375 120.871094 27.117188 114.917969 C 27.125 109.78125 27.136719 104.648438 27.152344 99.515625 C 27.15625 98.414062 27.160156 97.316406 27.160156 96.21875 C 27.171875 92.605469 27.1875 88.992188 27.207031 85.382812 C 27.207031 84.472656 27.210938 83.566406 27.210938 82.632812 C 27.21875 81.792969 27.222656 80.957031 27.230469 80.09375 C 27.234375 79.007812 27.234375 79.007812 27.238281 77.898438 C 27.351562 75.585938 27.703125 73.371094 28.125 71.09375 C 28.640625 71.09375 29.15625 71.09375 29.6875 71.09375 C 29.882812 70.515625 30.074219 69.933594 30.273438 69.335938 C 32.523438 64.382812 37.042969 62.386719 41.601562 59.863281 C 43.089844 59.027344 44.578125 58.1875 46.066406 57.347656 C 46.839844 56.914062 47.617188 56.476562 48.414062 56.027344 C 52.300781 53.828125 56.15625 51.570312 60.011719 49.316406 C 60.785156 48.863281 61.5625 48.410156 62.359375 47.941406 C 64.75 46.546875 67.140625 45.148438 69.53125 43.75 C 72.820312 41.828125 76.105469 39.90625 79.394531 37.988281 C 80.179688 37.53125 80.964844 37.070312 81.773438 36.597656 C 86.820312 33.65625 91.878906 30.746094 96.957031 27.863281 C 99.078125 26.640625 101.179688 25.390625 103.273438 24.121094 C 107.316406 21.675781 111.453125 19.410156 115.625 17.1875 C 116.496094 16.71875 117.367188 16.253906 118.261719 15.773438 C 126.988281 11.824219 134.84375 16.324219 142.335938 20.898438 Z M 142.335938 20.898438 "/>
<path style=" stroke:none;fill-rule:nonzero;fill:rgb(40.392157%,13.333334%,47.450981%);fill-opacity:1;" d="M 77.34375 159.375 C 78.398438 160.46875 78.398438 160.46875 79.394531 162.011719 C 88.191406 174.425781 101.617188 182.4375 116.453125 185.539062 C 134.050781 187.808594 150.210938 185.023438 164.921875 174.894531 C 170.167969 170.777344 174.566406 165.976562 178.90625 160.9375 C 180.195312 161.453125 181.484375 161.96875 182.8125 162.5 C 182.8125 163.015625 182.8125 163.53125 182.8125 164.0625 C 184.101562 164.320312 185.390625 164.578125 186.71875 164.84375 C 186.71875 165.359375 186.71875 165.875 186.71875 166.40625 C 188.007812 166.664062 189.296875 166.921875 190.625 167.1875 C 190.625 167.703125 190.625 168.21875 190.625 168.75 C 191.914062 169.007812 193.203125 169.265625 194.53125 169.53125 C 194.53125 170.046875 194.53125 170.5625 194.53125 171.09375 C 195.050781 171.152344 195.570312 171.207031 196.101562 171.269531 C 199.269531 172.09375 201.765625 173.644531 204.539062 175.34375 C 205.082031 175.660156 205.625 175.980469 206.179688 176.308594 C 207.535156 177.125 208.851562 178.011719 210.15625 178.90625 C 210.15625 179.421875 210.15625 179.9375 210.15625 180.46875 C 210.71875 180.53125 211.285156 180.597656 211.867188 180.664062 C 214.496094 181.367188 215.949219 182.585938 217.96875 184.375 C 212.640625 188.050781 207.136719 191.328125 201.515625 194.53125 C 199.699219 195.574219 197.882812 196.613281 196.066406 197.65625 C 195.609375 197.917969 195.152344 198.179688 194.679688 198.449219 C 190.191406 201.027344 185.71875 203.636719 181.25 206.25 C 173.910156 210.539062 166.554688 214.800781 159.183594 219.035156 C 154.871094 221.515625 150.578125 224.015625 146.304688 226.554688 C 145.457031 227.054688 144.609375 227.554688 143.734375 228.074219 C 142.128906 229.023438 140.527344 229.980469 138.925781 230.945312 C 132.632812 234.667969 127.648438 236.886719 120.3125 235.15625 C 114.734375 232.789062 109.554688 229.574219 104.394531 226.414062 C 103.039062 225.589844 101.679688 224.765625 100.324219 223.941406 C 99.441406 223.402344 99.441406 223.402344 98.539062 222.851562 C 96.972656 221.929688 95.378906 221.117188 93.75 220.3125 C 91.410156 218.976562 89.078125 217.632812 86.753906 216.277344 C 84.671875 215.074219 82.753906 214.042969 80.46875 213.28125 C 80.46875 212.765625 80.46875 212.25 80.46875 211.71875 C 79.9375 211.660156 79.402344 211.601562 78.855469 211.542969 C 75.894531 210.761719 73.640625 209.21875 71.140625 207.519531 C 67.820312 205.289062 64.546875 203.316406 60.9375 201.5625 C 59.433594 200.714844 57.933594 199.851562 56.445312 198.976562 C 55.628906 198.496094 54.816406 198.019531 53.976562 197.523438 C 51.179688 195.867188 48.394531 194.1875 45.613281 192.5 C 43.238281 191.105469 40.8125 189.824219 38.363281 188.570312 C 36.21875 187.175781 34.574219 185.441406 32.8125 183.59375 C 33.570312 183.160156 33.570312 183.160156 34.34375 182.714844 C 36.777344 181.316406 39.214844 179.917969 41.648438 178.515625 C 42.097656 178.257812 42.546875 178 43.007812 177.734375 C 48.390625 174.644531 53.746094 171.519531 59.0625 168.3125 C 60.023438 167.734375 60.984375 167.15625 61.945312 166.582031 C 63.792969 165.46875 65.632812 164.351562 67.472656 163.226562 C 68.730469 162.46875 68.730469 162.46875 70.011719 161.699219 C 70.75 161.25 71.488281 160.800781 72.25 160.335938 C 74.21875 159.375 74.21875 159.375 77.34375 159.375 Z M 77.34375 159.375 "/>
<path style=" stroke:none;fill-rule:nonzero;fill:rgb(60.392159%,30.980393%,58.823532%);fill-opacity:1;" d="M 147.558594 97.460938 C 152.46875 101.308594 156.335938 105.078125 158.59375 110.9375 C 148.679688 116.816406 138.753906 122.675781 128.761719 128.421875 C 127.125 129.363281 125.488281 130.308594 123.851562 131.25 C 121.378906 132.679688 118.902344 134.101562 116.425781 135.523438 C 115.445312 136.089844 114.460938 136.652344 113.480469 137.21875 C 112.101562 138.015625 110.714844 138.808594 109.332031 139.601562 C 108.128906 140.292969 108.128906 140.292969 106.902344 141 C 104.894531 142.074219 102.914062 142.957031 100.78125 143.75 C 95.746094 136.417969 93.996094 128.492188 94.710938 119.652344 C 95.050781 117.96875 95.484375 116.449219 96.09375 114.84375 C 96.378906 114.050781 96.378906 114.050781 96.671875 113.238281 C 98.121094 109.53125 98.121094 109.53125 100 108.59375 C 100.160156 107.917969 100.320312 107.242188 100.488281 106.542969 C 102.976562 100.429688 109.890625 96.558594 115.625 93.75 C 126.628906 89.507812 137.816406 90.679688 147.558594 97.460938 Z M 147.558594 97.460938 "/>
<path style=" stroke:none;fill-rule:nonzero;fill:rgb(40.392157%,13.333334%,47.450981%);fill-opacity:1;" d="M 128.125 129.6875 C 128.125 130.203125 128.125 130.71875 128.125 131.25 C 128.683594 131.332031 129.242188 131.414062 129.820312 131.496094 C 132.273438 132.089844 134.023438 133.019531 136.179688 134.328125 C 136.871094 134.734375 137.5625 135.144531 138.273438 135.566406 C 138.789062 135.949219 139.308594 136.328125 139.84375 136.71875 C 139.84375 137.234375 139.84375 137.75 139.84375 138.28125 C 141.777344 138.667969 141.777344 138.667969 143.75 139.0625 C 143.75 139.578125 143.75 140.09375 143.75 140.625 C 145.683594 141.011719 145.683594 141.011719 147.65625 141.40625 C 147.65625 141.921875 147.65625 142.4375 147.65625 142.96875 C 148.253906 143.066406 148.847656 143.164062 149.460938 143.261719 C 151.5625 143.75 151.5625 143.75 153.90625 145.3125 C 153.214844 149.285156 150.835938 150.886719 147.65625 153.125 C 139.429688 158 131.058594 160.183594 121.550781 157.972656 C 119.019531 157.214844 116.542969 156.371094 114.0625 155.46875 C 113.511719 155.300781 112.964844 155.132812 112.398438 154.960938 C 107.75 153.367188 104.445312 149.355469 102.1875 145.113281 C 101.878906 144.4375 101.878906 144.4375 101.5625 143.75 C 104.9375 141.648438 108.324219 139.570312 111.71875 137.5 C 112.292969 137.148438 112.863281 136.796875 113.453125 136.4375 C 115.230469 135.351562 117.015625 134.277344 118.796875 133.203125 C 119.367188 132.855469 119.933594 132.507812 120.515625 132.148438 C 121.054688 131.828125 121.59375 131.507812 122.148438 131.175781 C 122.621094 130.890625 123.097656 130.601562 123.585938 130.304688 C 125 129.6875 125 129.6875 128.125 129.6875 Z M 128.125 129.6875 "/>
<path style=" stroke:none;fill-rule:nonzero;fill:rgb(49.411765%,27.450982%,50.980395%);fill-opacity:1;" d="M 182.597656 124.140625 C 185.011719 124.167969 187.429688 124.191406 189.84375 124.21875 C 189.84375 127.828125 189.84375 131.4375 189.84375 135.15625 C 182.597656 135.234375 182.597656 135.234375 180.46875 135.15625 C 179.6875 134.375 179.6875 134.375 179.582031 132.273438 C 179.585938 131.421875 179.585938 130.566406 179.589844 129.6875 C 179.585938 128.832031 179.585938 127.980469 179.582031 127.101562 C 179.722656 124.261719 179.75 124.246094 182.597656 124.140625 Z M 182.597656 124.140625 "/>
<path style=" stroke:none;fill-rule:nonzero;fill:rgb(49.803922%,21.176471%,52.941179%);fill-opacity:1;" d="M 183.476562 125.703125 C 185.078125 125.730469 186.679688 125.753906 188.28125 125.78125 C 188.28125 128.101562 188.28125 130.421875 188.28125 132.8125 C 185.960938 132.8125 183.640625 132.8125 181.25 132.8125 C 181.171875 128.007812 181.171875 128.007812 181.25 126.5625 C 182.03125 125.78125 182.03125 125.78125 183.476562 125.703125 Z M 183.476562 125.703125 "/>
<path style=" stroke:none;fill-rule:nonzero;fill:rgb(64.705884%,49.803922%,64.705884%);fill-opacity:1;" d="M 121.875 61.71875 C 126.515625 61.71875 131.15625 61.71875 135.9375 61.71875 C 135.9375 62.234375 135.9375 62.75 135.9375 63.28125 C 131.332031 64.203125 126.007812 65.257812 121.875 62.5 C 121.875 62.242188 121.875 61.984375 121.875 61.71875 Z M 121.875 61.71875 "/>
<path style=" stroke:none;fill-rule:nonzero;fill:rgb(71.372551%,64.705884%,72.156864%);fill-opacity:1;" d="M 179.6875 125.78125 C 179.945312 125.78125 180.203125 125.78125 180.46875 125.78125 C 180.726562 128.101562 180.984375 130.421875 181.25 132.8125 C 184.085938 133.070312 186.921875 133.328125 189.84375 133.59375 C 189.84375 134.109375 189.84375 134.625 189.84375 135.15625 C 188.296875 135.175781 186.75 135.191406 185.203125 135.203125 C 184.34375 135.214844 183.484375 135.222656 182.597656 135.234375 C 180.46875 135.15625 180.46875 135.15625 179.6875 134.375 C 179.632812 132.925781 179.621094 131.476562 179.640625 130.03125 C 179.644531 129.238281 179.652344 128.449219 179.660156 127.632812 C 179.667969 127.023438 179.679688 126.410156 179.6875 125.78125 Z M 179.6875 125.78125 "/>
<path style=" stroke:none;fill-rule:nonzero;fill:rgb(56.470591%,39.215687%,57.254905%);fill-opacity:1;" d="M 190.507812 112.421875 C 192.109375 112.449219 193.710938 112.472656 195.3125 112.5 C 194.796875 113.015625 194.28125 113.53125 193.75 114.0625 C 192.71875 114.0625 191.6875 114.0625 190.625 114.0625 C 190.625 115.867188 190.625 117.671875 190.625 119.53125 C 189.335938 119.273438 188.046875 119.015625 186.71875 118.75 C 187.234375 118.492188 187.75 118.234375 188.28125 117.96875 C 188.265625 117.210938 188.25 116.453125 188.234375 115.671875 C 188.296875 112.539062 188.296875 112.539062 190.507812 112.421875 Z M 190.507812 112.421875 "/>
<path style=" stroke:none;fill-rule:nonzero;fill:rgb(41.960785%,24.705882%,46.27451%);fill-opacity:1;" d="M 103.90625 146.09375 C 110.503906 150.898438 110.503906 150.898438 113.28125 153.90625 C 110.703125 153.90625 109.222656 153.734375 107.339844 151.90625 C 106.929688 151.421875 106.523438 150.9375 106.101562 150.4375 C 105.484375 149.714844 105.484375 149.714844 104.847656 148.976562 C 103.90625 147.65625 103.90625 147.65625 103.90625 146.09375 Z M 103.90625 146.09375 "/>
<path style=" stroke:none;fill-rule:nonzero;fill:rgb(54.901963%,35.686275%,54.509807%);fill-opacity:1;" d="M 144.53125 96.09375 C 148.660156 98.242188 151.515625 100.5 154.6875 103.90625 C 154.429688 104.421875 154.171875 104.9375 153.90625 105.46875 C 152.3125 104.207031 150.75 102.902344 149.21875 101.5625 C 149.21875 101.046875 149.21875 100.53125 149.21875 100 C 148.734375 99.757812 148.25 99.515625 147.753906 99.265625 C 146.679688 98.730469 145.605469 98.195312 144.53125 97.65625 C 144.53125 97.140625 144.53125 96.625 144.53125 96.09375 Z M 144.53125 96.09375 "/>
<path style=" stroke:none;fill-rule:nonzero;fill:rgb(51.764709%,31.764707%,53.725493%);fill-opacity:1;" d="M 195.3125 112.5 C 195.828125 112.5 196.34375 112.5 196.875 112.5 C 196.875 114.304688 196.875 116.109375 196.875 117.96875 C 197.390625 117.96875 197.90625 117.96875 198.4375 117.96875 C 198.4375 118.484375 198.4375 119 198.4375 119.53125 C 197.40625 119.273438 196.375 119.015625 195.3125 118.75 C 195.3125 116.6875 195.3125 114.625 195.3125 112.5 Z M 195.3125 112.5 "/>
<path style=" stroke:none;fill-rule:nonzero;fill:rgb(44.705883%,27.843139%,48.627451%);fill-opacity:1;" d="M 84.375 168.75 C 85.253906 169.496094 86.132812 170.246094 87.011719 170.996094 C 87.5 171.414062 87.992188 171.828125 88.496094 172.257812 C 89.5 173.136719 90.464844 174.058594 91.40625 175 C 88.601562 174.765625 87.671875 174.398438 85.695312 172.3125 C 84.375 170.3125 84.375 170.3125 84.375 168.75 Z M 84.375 168.75 "/>
</g>
</svg>
