<?xml version="1.0" encoding="UTF-8"?>
<svg version="1.1" xmlns="http://www.w3.org/2000/svg" width="5000" height="5000">
<path d="M0 0 C8.08101513 0.00713772 16.16201433 0.00213794 24.24302946 -0.00291242 C39.33421499 -0.01201261 54.42538693 -0.01186193 69.51657362 -0.00635067 C84.77214968 -0.00081363 100.02771683 0.0002851 115.28329344 -0.00382534 C116.25323405 -0.00408368 117.22317466 -0.00434203 118.22250741 -0.0046082 C122.17408169 -0.00567496 126.12565596 -0.0067724 130.07723022 -0.00790875 C166.73389357 -0.01844247 203.39055097 -0.01922478 240.04721518 -0.01361385 C275.36172507 -0.00821111 310.67623214 -0.00610932 345.9907424 -0.00865474 C348.21528216 -0.00880971 350.43982192 -0.00896402 352.66436167 -0.00911768 C361.6055387 -0.00973871 370.54671572 -0.01037605 379.48789275 -0.01103721 C404.47734893 -0.01287059 429.46680511 -0.01401226 454.45626135 -0.01460949 C455.59391736 -0.01463678 456.73157338 -0.01466407 457.90370382 -0.01469219 C494.11620272 -0.01550989 530.32870077 -0.01326143 566.5411994 -0.00891033 C568.30113902 -0.00869958 568.30113902 -0.00869958 570.09663297 -0.00848458 C589.14604529 -0.00619511 608.19545759 -0.00375599 627.24486989 -0.00130423 C702.77086308 0.00840595 778.29684916 0.00795768 853.82284231 -0.0017654 C872.85824905 -0.00420811 891.8936558 -0.00663036 910.92906256 -0.00891033 C912.68757887 -0.00912167 912.68757887 -0.00912167 914.48162076 -0.00933729 C950.65528139 -0.01365484 986.82894142 -0.01547723 1023.00260229 -0.01460949 C1024.7078891 -0.01456873 1024.7078891 -0.01456873 1026.44762614 -0.01452716 C1051.41251191 -0.01390198 1076.37739762 -0.01263427 1101.34228333 -0.01078848 C1110.27637805 -0.0101303 1119.21047278 -0.00950412 1128.1445675 -0.00888706 C1130.3668061 -0.00873228 1132.58904469 -0.00857482 1134.81128329 -0.00841467 C1170.10298904 -0.00587817 1205.3946917 -0.0087113 1240.68639704 -0.01411496 C1277.24919534 -0.01965201 1313.81198651 -0.01756064 1350.3747838 -0.00705236 C1354.31556869 -0.00594784 1358.25635359 -0.00487441 1362.1971385 -0.00382534 C1363.64767671 -0.00343472 1363.64767671 -0.00343472 1365.12751871 -0.00303621 C1380.32826714 0.00088084 1395.52900659 -0.00180802 1410.7297542 -0.00736335 C1425.74188011 -0.01270488 1440.75399114 -0.01070554 1455.7661152 -0.00133517 C1463.76842107 0.00347158 1471.7706964 0.00537275 1479.77300106 -0.00214714 C1529.24332569 -0.04601361 1578.61311436 1.11504155 1628.00301809 4.07147679 C1629.43251779 4.15571388 1630.8620223 4.23986926 1632.29153128 4.32394871 C1714.28832528 9.1718738 1792.81051703 19.68551876 1988.50301809 113.25897679 C1989.26453177 113.79377659 1990.02604544 114.3285764 1990.81063528 114.87958225 C2001.12289802 122.13740946 2011.04759458 129.75702397 2020.75008841 137.81024632 C2023.25313134 139.87891717 2025.78722185 141.90879894 2028.31551809 143.94647679 C2033.00585819 147.78466801 2037.49029936 151.81861959 2041.94833059 155.92303929 C2044.12243908 157.91098558 2046.32724585 159.84431017 2048.56551809 161.75897679 C2052.62403976 165.27469206 2056.36194965 169.08356731 2060.10848684 172.92694554 C2062.46542747 175.29914762 2062.46542747 175.29914762 2065.10848684 177.33710179 C2067.25199642 179.05750425 2068.88737776 180.7117478 2070.62801809 182.82147679 C2073.59638122 186.30185014 2076.74654203 189.55053623 2080.00301809 192.75897679 C2084.38608299 197.09560154 2088.52675927 201.54761129 2092.50301809 206.25897679 C2093.32286184 207.21288304 2094.14270559 208.16678929 2094.98739309 209.14960179 C2101.23216206 216.43535254 2107.26351213 223.86742654 2113.12020559 231.46844944 C2114.01952888 232.63293337 2114.92296589 233.79425583 2115.83114309 234.95184788 C2136.83249668 261.73629479 2154.6586843 291.19497234 2170.50301809 321.25897679 C2170.99801809 322.19693089 2171.49301809 323.13488499 2172.00301809 324.10126194 C2185.13928455 349.18930728 2195.46880293 375.44385237 2204.50301809 402.25897679 C2204.87491263 403.35983616 2205.24680716 404.46069554 2205.62997122 405.59491429 C2213.25385965 428.45313355 2218.95295941 451.82690276 2224.50301809 475.25897679 C2224.94436087 477.10700901 2224.94436087 477.10700901 2225.39461966 478.99237522 C2243.82870039 557.70760007 2242.77758951 644.36383116 2244.05172129 724.80091748 C2244.0622943 725.45715169 2244.07286731 726.11338591 2244.08376072 726.78950601 C2244.56709502 756.84316282 2244.63662411 786.8944977 2244.60500524 816.95156217 C2244.59706307 824.71721726 2244.59544357 832.48287149 2244.59380417 840.24853004 C2244.59057121 854.74725242 2244.58257714 869.24596838 2244.57176466 883.74468693 C2244.5608585 898.38973769 2244.55225291 913.03478724 2244.54631109 927.67984089 C2244.54593081 928.61286203 2244.54555052 929.54588317 2244.54515871 930.50717768 C2244.54361581 934.30866012 2244.54208749 938.11014257 2244.54057794 941.91162503 C2244.52532767 980.28129665 2244.50338036 1018.65096237 2244.47857216 1057.02062887 C2244.47515773 1062.30185897 2244.47174893 1067.58308907 2244.46834607 1072.86431917 C2244.4676695 1073.91360288 2244.46699292 1074.96288659 2244.46629584 1076.04396678 C2244.45127137 1099.3994806 2244.43814206 1122.75499538 2244.42534571 1146.11051051 C2244.42241355 1151.45899537 2244.41946621 1156.80748022 2244.41651945 1162.15596507 C2244.41593427 1163.21816567 2244.41534909 1164.28036627 2244.41474617 1165.37475477 C2244.41356212 1167.52370326 2244.41237786 1169.67265174 2244.41119341 1171.82160023 C2244.41000684 1173.97446501 2244.40882067 1176.12732978 2244.4076349 1178.28019456 C2244.37402939 1239.2728766 2244.33820185 1300.26555701 2244.2976224 1361.25823483 C2244.29610881 1363.53517234 2244.29459524 1365.81210985 2244.29308167 1368.08904737 C2244.28548524 1379.51194991 2244.27786782 1390.93485243 2244.27024732 1402.35775496 C2244.26795458 1405.79522803 2244.26566195 1409.23270111 2244.26336941 1412.67017418 C2244.26183943 1414.96371096 2244.26030886 1417.25724774 2244.25877768 1419.55078452 C2244.21034961 1492.09722985 2244.16990827 1564.64367556 2244.13607473 1637.19012913 C2244.12754216 1655.48121282 2244.11897896 1673.7722965 2244.11024447 1692.06338009 C2244.10970659 1693.18991858 2244.10916871 1694.31645706 2244.10861453 1695.47713308 C2244.09198013 1730.23909006 2244.07292637 1765.00104508 2244.05140848 1799.76299938 C2244.0507325 1800.85551411 2244.05005652 1801.94802883 2244.04936005 1803.07365006 C2244.03449217 1827.06478536 2244.01903945 1851.05592024 2244.00304919 1875.04705481 C2243.99733211 1883.63246402 2243.9916579 1892.21787325 2243.9860044 1900.80328249 C2243.98459776 1902.93872747 2243.98318885 1905.07417244 2243.98177766 1907.20961742 C2243.95939539 1941.11146197 2243.9427251 1975.01330624 2243.9289636 2008.91515529 C2243.91505132 2043.07910493 2243.89469767 2077.24304476 2243.86578655 2111.40698516 C2243.86177566 2116.14682975 2243.85783206 2120.88667438 2243.85392828 2125.62651905 C2243.85316045 2126.5554688 2243.85239262 2127.48441855 2243.85160152 2128.44151829 C2243.8397135 2143.03736649 2243.8343372 2157.63320919 2243.83180043 2172.22906171 C2243.82915388 2186.64715837 2243.81928386 2201.06523609 2243.80218634 2215.48332298 C2243.79326072 2223.16722058 2243.78718717 2230.85108888 2243.79041806 2238.53499187 C2243.80809889 2286.83833149 2242.67015975 2335.05973803 2239.75126715 2383.28065571 C2239.6229134 2385.40600301 2239.49662658 2387.53146628 2239.37066336 2389.65695652 C2236.50815821 2437.80406855 2233.48660093 2486.16260755 2222.50301809 2533.25897679 C2222.22119681 2534.48616429 2221.93937552 2535.71335179 2221.64901419 2536.97772679 C2207.39583675 2598.42930569 2185.04754582 2657.10780454 2152.50301809 2711.25897679 C2152.00382864 2712.09718968 2151.50463919 2712.93540257 2150.99032278 2713.79901585 C2144.56737341 2724.58274066 2137.75743159 2735.01745185 2130.50301809 2745.25897679 C2129.99512747 2745.98085179 2129.48723684 2746.70272679 2128.96395559 2747.44647679 C2121.67074485 2757.79349498 2114.03626933 2767.76584505 2105.95174856 2777.5060471 C2103.88307771 2780.00909003 2101.85319594 2782.54318054 2099.81551809 2785.07147679 C2096.04697111 2789.67671035 2092.09513506 2794.08771213 2088.05770559 2798.45819554 C2086.10716381 2800.59663354 2084.20787564 2802.75718832 2082.31966848 2804.94940647 C2078.66186635 2809.13371674 2074.81672289 2813.09014145 2070.88192434 2817.01288304 C2070.17833288 2817.71743122 2069.47474142 2818.42197941 2068.74982901 2819.14787754 C2067.27287161 2820.62551045 2065.79467067 2822.10190135 2064.31527395 2823.57709202 C2062.07136724 2825.8156416 2059.83285105 2828.05948151 2057.59481497 2830.30389866 C2056.14917191 2831.74888082 2054.70321864 2833.19355271 2053.25692434 2834.63788304 C2052.26904677 2835.62879696 2052.26904677 2835.62879696 2051.26121206 2836.63972935 C2046.83575273 2841.04330625 2042.24419999 2845.19850841 2037.50301809 2849.25897679 C2036.97127478 2849.71831105 2036.43953146 2850.1776453 2035.89167471 2850.65089878 C2028.19732218 2857.28189644 2020.33904286 2863.67699705 2012.29354544 2869.87616429 C2011.12906151 2870.77548757 2009.96773905 2871.67892458 2008.810147 2872.58710179 C1988.62679002 2888.41262239 1966.73241485 2902.50311605 1944.50301809 2915.25897679 C1943.7998345 2915.66696507 1943.09665091 2916.07495335 1942.37215872 2916.49530491 C1910.32338909 2935.03419394 1876.56535258 2949.44621511 1841.50301809 2961.25897679 C1840.40215872 2961.63087132 1839.30129934 2962.00276585 1838.16708059 2962.38592991 C1815.30991137 2970.00946812 1791.93600924 2975.71643005 1768.50301809 2981.25897679 C1766.64700979 2981.70031956 1766.64700979 2981.70031956 1764.75350638 2982.15057835 C1715.51237932 2993.61324218 1663.49539411 2994.80015164 1613.19051809 2997.44647679 C1612.38078417 2997.48918328 1611.57105024 2997.53188977 1610.73677893 2997.57589039 C1605.97488843 2997.82646016 1601.21279259 2998.07254684 1596.45039053 2998.31320271 C1595.00758789 2998.3861997 1593.5648155 2998.45979851 1592.12208243 2998.5341576 C1567.79678252 2999.7817606 1543.49125726 3000.40870791 1519.13449831 3000.38761124 C1516.39237098 3000.38840815 1513.65024533 3000.39070754 1510.90811883 3000.39292347 C1504.98394566 3000.39692961 1499.0597813 3000.39732479 1493.13560728 3000.39521753 C1484.26650129 3000.39208021 1475.39740321 3000.39477823 1466.52829779 3000.39851624 C1451.40346896 3000.40472117 1436.27864299 3000.40622664 1421.15381308 3000.40509876 C1405.84181378 3000.40397135 1390.52981691 3000.40501867 1375.21781798 3000.40867123 C1374.24792734 3000.40890088 1373.27803671 3000.40913053 1372.27875546 3000.40936715 C1368.32798897 3000.41030887 1364.37722248 3000.41126457 1360.42645599 3000.41223834 C1319.28320356 3000.42236417 1278.13995249 3000.42544366 1236.99669895 3000.42603045 C1232.57248995 3000.4260952 1228.14828094 3000.42616314 1223.72407193 3000.42623386 C1222.62607395 3000.42625086 1221.52807597 3000.42626787 1220.39680532 3000.42628539 C1196.02469916 3000.42669449 1171.65259327 3000.42888655 1147.28048725 3000.4313897 C1137.23276756 3000.43241813 1127.18504786 3000.43340818 1117.13732816 3000.43440595 C1115.47183177 3000.43457184 1115.47183177 3000.43457184 1113.77268899 3000.43474107 C1050.16936179 3000.44106263 986.56603476 3000.44519048 922.96270723 3000.44473252 C920.58403653 3000.44471674 918.20536583 3000.444701 915.82669512 3000.44468531 C905.08816696 3000.44461193 894.3496388 3000.44452376 883.61111064 3000.44443142 C878.82293858 3000.4443903 874.03476653 3000.44435015 869.24659447 3000.44431011 C866.85003062 3000.44428971 864.45346677 3000.44426869 862.05690292 3000.44424705 C786.32922252 3000.4435673 710.6015468 3000.45087667 634.8738677 3000.46478733 C615.80251349 3000.46828874 596.73115927 3000.47175837 577.65980501 3000.47505173 C575.89803934 3000.47535604 575.89803934 3000.47535604 574.10068244 3000.4756665 C537.85842775 3000.48188865 501.61617345 3000.48564846 465.37391825 3000.48690972 C463.66524192 3000.48696964 463.66524192 3000.48696964 461.92204689 3000.48703078 C436.90642402 3000.48788436 411.89080118 3000.48814515 386.87517831 3000.4878604 C377.92225425 3000.48776393 368.9693302 3000.48771188 360.01640614 3000.48768167 C357.78938194 3000.48767376 355.56235775 3000.48766355 353.33533355 3000.48765105 C317.95649424 3000.48747525 282.57765896 3000.49315139 247.19882081 3000.50180487 C211.52672389 3000.51048565 175.85463252 3000.51261984 140.18253498 3000.50604354 C135.23370563 3000.50513148 130.28487626 3000.50428814 125.33604689 3000.50348553 C124.36610617 3000.50332544 123.39616545 3000.50316535 122.39683259 3000.50300042 C107.14940758 3000.5006638 91.9019923 3000.50496668 76.65456912 3000.51215672 C61.59589371 3000.5191147 46.5372324 3000.51872696 31.47855727 3000.51096458 C23.45089429 3000.50701664 15.42326231 3000.50599097 7.3956019 3000.51442193 C-41.63399998 3000.56331916 -90.56982758 2999.47018038 -139.51866083 2996.50722584 C-141.64400813 2996.37887209 -143.7694714 2996.25258527 -145.89496164 2996.12662205 C-194.04207367 2993.2641169 -242.40061267 2990.24255962 -289.49698191 2979.25897679 C-290.72416941 2978.9771555 -291.95135691 2978.69533421 -293.21573191 2978.40497288 C-354.66731081 2964.15179545 -413.34580966 2941.80350451 -467.49698191 2909.25897679 C-468.3351948 2908.75978733 -469.17340769 2908.26059788 -470.03702097 2907.74628147 C-480.82074578 2901.3233321 -491.25545697 2894.51339028 -501.49698191 2887.25897679 C-502.57979441 2886.49714085 -502.57979441 2886.49714085 -503.68448191 2885.71991429 C-514.02973187 2878.4279499 -524.00089626 2870.79499312 -533.73965769 2862.71210179 C-536.26631558 2860.62281757 -538.82166097 2858.5692641 -541.37198191 2856.50897679 C-545.75459239 2852.92141258 -549.98020105 2849.18795886 -554.16495066 2845.37225804 C-556.24732927 2843.48521142 -558.36201254 2841.64839446 -560.49698191 2839.82147679 C-564.57224799 2836.28134665 -568.32494816 2832.44799953 -572.11416941 2828.60663304 C-574.07784978 2826.67192499 -576.05854632 2824.88334531 -578.18448191 2823.13397679 C-581.33218279 2820.51333279 -583.9007121 2817.57907876 -586.54776316 2814.46210179 C-588.76766402 2811.95303548 -591.11201693 2809.61146871 -593.49698191 2807.25897679 C-597.71293137 2803.08106597 -601.66411861 2798.78728744 -605.49698191 2794.25897679 C-606.72868112 2792.82618382 -606.72868112 2792.82618382 -607.98526316 2791.36444554 C-614.22818299 2784.07954196 -620.2585974 2776.64907157 -626.11416941 2769.04950413 C-627.01349269 2767.8850202 -627.9169297 2766.72369774 -628.82510691 2765.56610569 C-649.82646049 2738.78165879 -667.65264812 2709.32298123 -683.49698191 2679.25897679 C-683.99198191 2678.32102268 -684.48698191 2677.38306858 -684.99698191 2676.41669163 C-698.13324836 2651.32864629 -708.46276674 2625.0741012 -717.49698191 2598.25897679 C-717.86887644 2597.15811741 -718.24077097 2596.05725804 -718.62393503 2594.92303929 C-726.24747324 2572.06587006 -731.95443517 2548.69196794 -737.49698191 2525.25897679 C-737.79121042 2524.02163792 -738.08543894 2522.78429905 -738.38858347 2521.50946507 C-748.90885643 2476.31664558 -750.5083877 2428.54128811 -753.12198191 2382.38397679 C-753.17855966 2381.39934452 -753.23513742 2380.41471226 -753.29342966 2379.40024266 C-753.70512983 2372.13456482 -754.05236297 2364.86644777 -754.38803959 2357.5969446 C-754.50246033 2355.14140647 -754.62011717 2352.68603419 -754.73777606 2350.23064923 C-756.4176443 2314.73751459 -756.78928125 2279.28618557 -756.75595848 2243.76199797 C-756.7488215 2235.6809818 -756.75382075 2227.59998158 -756.75887111 2219.51896542 C-756.7679713 2204.42777989 -756.76782062 2189.33660795 -756.76230936 2174.24542126 C-756.75677232 2158.9898452 -756.75567359 2143.73427805 -756.75978403 2128.47870144 C-756.76004238 2127.50876083 -756.76030072 2126.53882022 -756.76056689 2125.53948747 C-756.76163365 2121.58791319 -756.7627311 2117.63633892 -756.76386745 2113.68476466 C-756.77440116 2077.02810131 -756.77518347 2040.37144391 -756.76957254 2003.7147797 C-756.7641698 1968.40026981 -756.76206801 1933.08576274 -756.76461344 1897.77125248 C-756.7647684 1895.54671272 -756.76492271 1893.32217296 -756.76507638 1891.09763321 C-756.7656974 1882.15645618 -756.76633474 1873.21527916 -756.7669959 1864.27410213 C-756.76882929 1839.28464595 -756.76997095 1814.29518977 -756.77056818 1789.30573353 C-756.77059547 1788.16807752 -756.77062276 1787.0304215 -756.77065088 1785.85829106 C-756.77146858 1749.64579216 -756.76922012 1713.43329411 -756.76486902 1677.22079548 C-756.76472852 1676.0475024 -756.76458803 1674.87420932 -756.76444327 1673.66536191 C-756.76215381 1654.61594959 -756.75971468 1635.56653729 -756.75726292 1616.51712499 C-756.74755274 1540.9911318 -756.74800101 1465.46514572 -756.75772409 1389.93915257 C-756.76016681 1370.90374583 -756.76258905 1351.86833908 -756.76486902 1332.83293232 C-756.76500992 1331.66058811 -756.76515081 1330.48824391 -756.76529598 1329.28037412 C-756.76961353 1293.10671349 -756.77143592 1256.93305346 -756.77056818 1220.75939259 C-756.77054101 1219.62253472 -756.77051384 1218.48567685 -756.77048585 1217.31436874 C-756.76986067 1192.34948297 -756.76859296 1167.38459726 -756.76674717 1142.41971155 C-756.76608899 1133.48561683 -756.76546282 1124.5515221 -756.76484575 1115.61742738 C-756.76469097 1113.39518878 -756.76453351 1111.17295019 -756.76437336 1108.95071159 C-756.76183686 1073.65900584 -756.76466999 1038.36730318 -756.77007365 1003.07559784 C-756.7756107 966.51279954 -756.77351933 929.95000837 -756.76301106 893.38721108 C-756.76190654 889.44642619 -756.76083311 885.50564129 -756.75978403 881.56485638 C-756.75952362 880.59783091 -756.7592632 879.63080544 -756.7589949 878.63447617 C-756.75507785 863.43372774 -756.75776671 848.23298829 -756.76332204 833.03224068 C-756.76866357 818.02011477 -756.76666423 803.00800374 -756.75729387 787.99587968 C-756.75248711 779.99357381 -756.75058606 771.99129848 -756.75810583 763.98899382 C-756.80152649 715.0140124 -755.70488153 666.13154855 -752.74523096 617.23729786 C-752.61687721 615.11195056 -752.49059039 612.98648729 -752.36462717 610.86099705 C-749.50212202 562.71388502 -746.48056474 514.35534602 -735.49698191 467.25897679 C-735.21516062 466.03178929 -734.93333933 464.80460179 -734.642978 463.54022679 C-720.38980057 402.08864788 -698.04150963 343.41014903 -665.49698191 289.25897679 C-664.99779245 288.4207639 -664.498603 287.582551 -663.98428659 286.71893772 C-657.56133722 275.93521291 -650.7513954 265.50050172 -643.49698191 255.25897679 C-642.98909128 254.53710179 -642.48120066 253.81522679 -641.95791941 253.07147679 C-634.66470866 242.72445859 -627.03023315 232.75210853 -618.94571237 223.01190647 C-616.87704152 220.50886354 -614.84715976 217.97477303 -612.80948191 215.44647679 C-608.97011958 210.75470558 -604.93495822 206.26890268 -600.82901316 201.80975804 C-598.86199162 199.65822527 -596.95145061 197.47605706 -595.05948191 195.25897679 C-590.48561829 189.98979899 -585.4604089 185.15651758 -580.49698191 180.25897679 C-577.51073556 177.2828021 -574.5388908 174.29268934 -571.57120066 171.29803929 C-570.1090186 169.82662795 -568.6467776 168.35527518 -567.18448191 166.88397679 C-566.46325144 166.15436741 -565.74202097 165.42475804 -564.99893503 164.67303929 C-560.33332208 159.9865043 -555.52938533 155.54787422 -550.49698191 151.25897679 C-549.96258493 150.79765354 -549.42818796 150.3363303 -548.87759714 149.86102757 C-541.18815087 143.22967094 -533.33019162 136.83878749 -525.28750925 130.64178929 C-524.12302532 129.742466 -522.96170286 128.83902899 -521.80411081 127.93085179 C-495.01966391 106.9294982 -465.56098635 89.10331058 -435.49698191 73.25897679 C-434.5590278 72.76397679 -433.6210737 72.26897679 -432.65469675 71.75897679 C-407.56665141 58.62271033 -381.31210632 48.29319195 -354.49698191 39.25897679 C-353.39612253 38.88708225 -352.29526316 38.51518772 -351.16104441 38.13202366 C-310.10203005 24.43763476 -267.526751 14.79136378 -224.49698191 10.25897679 C-223.33827585 10.13682804 -223.33827585 10.13682804 -222.15616159 10.01221165 C-197.50563028 7.44108455 -172.79716122 5.7347691 -148.06047373 4.26092991 C-146.01079693 4.13853392 -143.9612205 4.01456436 -141.91165476 3.89032444 C-131.77633188 3.28249958 -121.63830155 2.75528039 -111.49698191 2.25897679 C-110.63118476 2.2164573 -109.76538761 2.17393782 -108.87335419 2.13012986 C-72.57975436 0.36644747 -36.32748229 -0.03407292 0 0 Z " fill="#0080FF" transform="translate(1756.4969819058315,999.74102321401)"/>
<path d="M0 0 C1.01819572 0.17002911 2.03639145 0.34005821 3.08544159 0.51523972 C8.95972755 1.49708986 14.83319324 2.48366696 20.70558167 3.47680473 C22.50980897 3.781932 24.31413927 4.08645094 26.11857605 4.39033699 C28.59756027 4.80844454 31.07596439 5.22982007 33.55419922 5.65234375 C34.28301489 5.77488997 35.01183056 5.8974362 35.76273155 6.02369595 C38.64799494 6.51902504 41.3419957 7.0723319 44.125 8 C44.125 125.48 44.125 242.96 44.125 364 C13.765 364.33 -16.595 364.66 -47.875 365 C-106.77320508 366.36375699 -106.77320508 366.36375699 -165.63110352 368.88146973 C-167.80536885 368.99632185 -169.97980934 369.10722123 -172.15429688 369.21777344 C-218.17277649 371.60800858 -260.87358394 387.5415406 -295.875 418 C-296.87273438 418.86367187 -297.87046875 419.72734375 -298.8984375 420.6171875 C-305.62807164 426.54998888 -311.41176538 432.85806238 -316.875 440 C-317.62523438 440.95777344 -318.37546875 441.91554688 -319.1484375 442.90234375 C-324.58682523 449.96482337 -329.45396824 457.26168106 -333.875 465 C-334.25769043 465.66821777 -334.64038086 466.33643555 -335.03466797 467.02490234 C-356.45885823 504.92525344 -365.09788757 546.85536571 -370.125 589.625 C-370.27614258 590.89424316 -370.42728516 592.16348633 -370.58300781 593.47119141 C-374.06596332 625.21483213 -374.21131429 656.95185325 -374.28019714 688.84741211 C-374.29434984 694.57864384 -374.31892811 700.30981473 -374.3425293 706.04101562 C-374.40525072 722.69397503 -374.45167531 739.3469926 -374.5 756 C-374.62375 793.29 -374.7475 830.58 -374.875 869 C-241.555 869 -108.235 869 29.125 869 C21.05325404 931.26775453 21.05325404 931.26775453 17.86434841 954.96722889 C17.36715775 958.66452655 16.87146835 962.36202562 16.37554932 966.05949402 C15.52469392 972.4018865 14.6729881 978.74416425 13.82061768 985.0863533 C12.58079566 994.31143643 11.34238356 1003.53670845 10.1042459 1012.76201777 C8.08282602 1027.82324486 6.06032485 1042.88432652 4.03710938 1057.9453125 C2.09508322 1072.40193504 0.15362068 1086.85863309 -1.78710938 1101.31542969 C-1.9067663 1102.20677127 -2.02642323 1103.09811285 -2.14970613 1104.01646478 C-2.63140161 1107.60469993 -3.11309334 1111.19293558 -3.59478009 1114.7811719 C-6.57567887 1136.98678056 -9.55698206 1159.19233495 -12.53909373 1181.39778076 C-12.8560625 1183.75812237 -13.17298132 1186.11847068 -13.48989296 1188.47881997 C-14.49946876 1195.99747685 -15.51002548 1203.51599961 -16.5227356 1211.034235 C-16.90686262 1213.88684336 -17.29087611 1216.73946698 -17.67480469 1219.59210205 C-17.76795039 1220.28409588 -17.86109609 1220.97608971 -17.95706439 1221.68905304 C-19.13585169 1230.45039127 -20.30142941 1239.21334727 -21.45220757 1247.97840893 C-22.09842762 1252.8983613 -22.74904835 1257.81772708 -23.40001297 1262.73705363 C-23.69723721 1264.99378388 -23.99211764 1267.25082425 -24.28446579 1269.50819135 C-24.67947811 1272.55812233 -25.08226457 1275.60693123 -25.48681641 1278.65560913 C-25.65510138 1279.98133017 -25.65510138 1279.98133017 -25.82678604 1281.33383346 C-25.93612347 1282.14632686 -26.04546089 1282.95882026 -26.15811157 1283.79593468 C-26.29443465 1284.84078217 -26.29443465 1284.84078217 -26.43351173 1285.90673769 C-26.875 1288 -26.875 1288 -28.875 1293 C-143.055 1293 -257.235 1293 -374.875 1293 C-374.875 1647.75 -374.875 2002.5 -374.875 2368 C-525.355 2368 -675.835 2368 -830.875 2368 C-830.91537864 2107.82694714 -830.91537864 2107.82694714 -830.92316496 2008.08658886 C-830.92327434 2006.68850052 -830.92338376 2005.29041219 -830.92349322 2003.89232385 C-830.9235481 2003.19130927 -830.92360297 2002.49029469 -830.92365951 2001.76803724 C-830.92560091 1977.00325935 -830.92760774 1952.23848146 -830.92972926 1927.47370358 C-830.92993115 1925.11020367 -830.93013133 1922.74670377 -830.93033109 1920.38320386 C-830.93339369 1884.22301863 -830.93729013 1848.06283374 -830.94366455 1811.90264893 C-830.94380145 1811.1259705 -830.94393835 1810.34929208 -830.9440794 1809.54907795 C-830.94629156 1797.02798587 -830.94857525 1784.5068938 -830.95086844 1771.98580173 C-830.95747836 1735.888857 -830.96355303 1699.79191254 -830.96613979 1663.69496727 C-830.9662201 1662.57976716 -830.9662201 1662.57976716 -830.96630202 1661.44203776 C-830.96746822 1645.11487855 -830.96836287 1628.78771934 -830.96900098 1612.4605601 C-830.96926258 1605.88947186 -830.9695632 1599.31838362 -830.96987724 1592.74729538 C-830.96991067 1592.02815159 -830.9699441 1591.30900779 -830.96997854 1590.56807176 C-830.97107209 1567.45832513 -830.97533329 1544.34858044 -830.98128221 1521.23883458 C-830.98743514 1497.27798723 -830.99000901 1473.31714236 -830.98850138 1449.35629417 C-830.98774348 1435.56171237 -830.98974448 1421.76713759 -830.99579754 1407.97255707 C-830.99957267 1398.73407987 -830.99964608 1389.49560721 -830.99683181 1380.25712969 C-830.99533528 1375.00841523 -830.99533153 1369.75971394 -830.99988318 1364.51100095 C-831.00401559 1359.70861757 -831.0032899 1354.90625728 -830.99913998 1350.10387415 C-830.99844253 1348.40355721 -830.99931531 1346.70323841 -831.00223524 1345.00292383 C-831.03007782 1327.64806618 -830.38568094 1310.36315211 -829.875 1293 C-953.955 1293 -1078.035 1293 -1205.875 1293 C-1205.875 1153.08 -1205.875 1013.16 -1205.875 869 C-1081.795 869 -957.715 869 -829.875 869 C-829.91452667 764.32177474 -829.91452667 764.32177474 -829.96508789 659.64355469 C-829.96960449 639.30322266 -829.96960449 639.30322266 -829.97044373 629.7522583 C-829.97136765 623.14466996 -829.97499866 616.53709029 -829.98057556 609.92950439 C-829.9870267 602.27452822 -829.98981636 594.61956022 -829.98844495 586.96458133 C-829.98785296 583.06457915 -829.98866249 579.16459514 -829.99421513 575.26459646 C-830.01614476 559.04784853 -829.8616349 542.84902553 -829.40623474 526.63800049 C-829.38513797 525.88408692 -829.3640412 525.13017335 -829.34230513 524.35341391 C-828.99443591 512.17714036 -828.44236842 500.02506538 -827.5625 487.875 C-827.49841949 486.96663391 -827.43433899 486.05826782 -827.36831665 485.12237549 C-821.89939734 408.23546227 -803.39526415 333.98531723 -770.875 264 C-770.39595215 262.95827637 -769.9169043 261.91655273 -769.42333984 260.84326172 C-755.12930686 229.85108936 -737.98047587 200.5725872 -717.875 173 C-717.11960937 171.95972656 -716.36421875 170.91945313 -715.5859375 169.84765625 C-711.38612922 164.15882503 -707.00988224 158.62092516 -702.5625 153.125 C-702.07789307 152.52550537 -701.59328613 151.92601074 -701.09399414 151.30834961 C-699.36866506 149.19333175 -697.62394872 147.09554112 -695.875 145 C-695.03541748 143.98687744 -694.19583496 142.97375488 -693.33081055 141.92993164 C-686.07455574 133.26174586 -678.34594464 125.15953233 -670.3293457 117.19360352 C-668.30377518 115.17882165 -666.28921616 113.15346725 -664.27539062 111.12695312 C-657.11213647 103.95603088 -649.85986493 97.2552913 -641.875 91 C-640.58040243 89.92826986 -639.28963593 88.85188403 -638.00390625 87.76953125 C-572.12824398 32.92018923 -489.30759766 3.87862302 -405.875 -11 C-405.14655884 -11.1299939 -404.41811768 -11.25998779 -403.66760254 -11.3939209 C-381.76137489 -15.26985259 -359.74448138 -17.91889991 -337.625 -20.25 C-336.44290955 -20.37496857 -335.26081909 -20.49993713 -334.04290771 -20.62869263 C-232.96520921 -31.22110928 -134.22843079 -21.84971288 0 0 Z " fill="#FEFEFF" transform="translate(3080.875,1632)"/>
</svg>
