<?xml version="1.0" encoding="UTF-8"?>
<svg xmlns="http://www.w3.org/2000/svg" xmlns:xlink="http://www.w3.org/1999/xlink" width="250px" height="250px" viewBox="0 0 250 250" version="1.1">
<g id="surface1">
<path style=" stroke:none;fill-rule:nonzero;fill:rgb(82.745099%,71.372551%,16.470589%);fill-opacity:1;" d="M 40.625 28.90625 C 96.3125 28.90625 152 28.90625 209.375 28.90625 C 209.375 34.585938 209.34375 40 208.8125 45.609375 C 208.75 46.28125 208.691406 46.957031 208.628906 47.652344 C 208.425781 49.878906 208.21875 52.105469 208.011719 54.335938 C 207.867188 55.945312 207.71875 57.554688 207.574219 59.164062 C 207.179688 63.511719 206.777344 67.855469 206.378906 72.203125 C 205.957031 76.753906 205.542969 81.304688 205.128906 85.855469 C 204.34375 94.464844 203.554688 103.070312 202.765625 111.679688 C 201.863281 121.484375 200.96875 131.285156 200.070312 141.089844 C 198.230469 161.25 196.382812 181.40625 194.53125 201.5625 C 192.191406 202.304688 189.851562 203.046875 187.511719 203.785156 C 186.859375 203.996094 186.207031 204.203125 185.53125 204.417969 C 179.332031 206.378906 173.09375 208.207031 166.835938 209.980469 C 166.273438 210.144531 165.707031 210.304688 165.125 210.46875 C 162.15625 211.3125 159.183594 212.152344 156.214844 212.988281 C 153.777344 213.675781 151.347656 214.367188 148.917969 215.066406 C 145.9375 215.925781 142.957031 216.769531 139.976562 217.605469 C 138.851562 217.925781 137.730469 218.246094 136.609375 218.570312 C 135.046875 219.023438 133.480469 219.460938 131.914062 219.894531 C 131.027344 220.144531 130.144531 220.398438 129.230469 220.65625 C 123.867188 221.535156 118.871094 220.050781 113.734375 218.597656 C 113.109375 218.425781 112.484375 218.253906 111.84375 218.074219 C 109.796875 217.507812 107.757812 216.933594 105.714844 216.359375 C 104.289062 215.960938 102.863281 215.5625 101.441406 215.167969 C 98.464844 214.335938 95.488281 213.5 92.511719 212.664062 C 88.695312 211.585938 84.871094 210.523438 81.046875 209.460938 C 78.109375 208.640625 75.171875 207.820312 72.234375 206.992188 C 70.828125 206.597656 69.417969 206.203125 68.003906 205.8125 C 66.042969 205.265625 64.082031 204.714844 62.121094 204.160156 C 61.535156 203.996094 60.949219 203.835938 60.34375 203.667969 C 58.964844 203.273438 57.605469 202.816406 56.25 202.34375 C 55.015625 199.875 55.050781 197.171875 54.8125 194.453125 C 54.75 193.789062 54.6875 193.128906 54.625 192.445312 C 54.417969 190.214844 54.21875 187.984375 54.015625 185.75 C 53.871094 184.15625 53.726562 182.5625 53.578125 180.964844 C 53.179688 176.621094 52.785156 172.277344 52.390625 167.933594 C 52.0625 164.308594 51.734375 160.683594 51.402344 157.054688 C 50.621094 148.496094 49.84375 139.933594 49.066406 131.375 C 48.269531 122.550781 47.464844 113.726562 46.65625 104.902344 C 45.964844 97.324219 45.273438 89.75 44.585938 82.171875 C 44.175781 77.648438 43.765625 73.125 43.351562 68.601562 C 42.960938 64.339844 42.574219 60.078125 42.191406 55.816406 C 42.050781 54.257812 41.90625 52.695312 41.761719 51.136719 C 41.566406 49 41.375 46.859375 41.183594 44.722656 C 41.125 44.113281 41.070312 43.503906 41.011719 42.875 C 40.597656 38.164062 40.625 33.6875 40.625 28.90625 Z M 40.625 28.90625 "/>
<path style=" stroke:none;fill-rule:nonzero;fill:rgb(98.431373%,83.92157%,14.901961%);fill-opacity:1;" d="M 125 44.53125 C 147.6875 44.53125 170.375 44.53125 193.75 44.53125 C 193.75 50.507812 193.664062 56.214844 193.105469 62.125 C 193.039062 62.890625 192.96875 63.660156 192.898438 64.449219 C 192.671875 66.96875 192.4375 69.488281 192.207031 72.007812 C 192.042969 73.800781 191.878906 75.59375 191.71875 77.390625 C 191.285156 82.167969 190.847656 86.945312 190.40625 91.726562 C 189.957031 96.648438 189.507812 101.570312 189.0625 106.496094 C 188.105469 117.019531 187.140625 127.542969 186.171875 138.066406 C 185.882812 141.222656 185.59375 144.378906 185.304688 147.535156 C 183.960938 162.160156 182.613281 176.785156 181.25 191.40625 C 175.855469 194.011719 170.109375 195.375 164.335938 196.882812 C 163.226562 197.179688 162.113281 197.472656 161.003906 197.765625 C 158.6875 198.382812 156.367188 198.992188 154.050781 199.601562 C 151.070312 200.382812 148.09375 201.167969 145.121094 201.957031 C 142.28125 202.710938 139.441406 203.460938 136.601562 204.207031 C 135.789062 204.421875 135.789062 204.421875 134.957031 204.644531 C 133.429688 205.046875 131.902344 205.449219 130.371094 205.847656 C 129.503906 206.078125 128.632812 206.308594 127.738281 206.542969 C 125.78125 207.03125 125.78125 207.03125 125 207.03125 C 125 153.40625 125 99.78125 125 44.53125 Z M 125 44.53125 "/>
<path style=" stroke:none;fill-rule:nonzero;fill:rgb(99.607843%,99.607843%,98.431373%);fill-opacity:1;" d="M 132.03125 66.40625 C 149.5625 66.40625 167.09375 66.40625 185.15625 66.40625 C 185.15625 78.90625 185.15625 78.90625 184.375 86.71875 C 172.515625 86.71875 160.65625 86.71875 148.4375 86.71875 C 148.4375 96.257812 148.4375 105.796875 148.4375 115.625 C 156.863281 114.601562 156.863281 114.601562 165.289062 113.566406 C 170.882812 112.890625 176.382812 112.292969 182.03125 112.5 C 181.265625 124.804688 180.414062 137.101562 179.402344 149.390625 C 179.300781 150.640625 179.199219 151.890625 179.097656 153.140625 C 178.953125 154.90625 178.808594 156.667969 178.660156 158.429688 C 178.574219 159.441406 178.492188 160.453125 178.402344 161.496094 C 178.3125 162.34375 178.21875 163.191406 178.125 164.0625 C 178.074219 164.664062 178.019531 165.261719 177.96875 165.882812 C 177.34375 167.1875 177.34375 167.1875 175.53125 168.050781 C 174.722656 168.269531 173.914062 168.492188 173.082031 168.71875 C 171.699219 169.105469 171.699219 169.105469 170.285156 169.5 C 169.253906 169.773438 168.21875 170.042969 167.1875 170.3125 C 166.097656 170.605469 165.003906 170.898438 163.914062 171.191406 C 161.003906 171.96875 158.085938 172.722656 155.167969 173.464844 C 153.363281 173.925781 151.558594 174.394531 149.753906 174.859375 C 148.578125 175.160156 147.40625 175.460938 146.230469 175.761719 C 145.707031 175.898438 145.179688 176.035156 144.636719 176.175781 C 140.449219 177.238281 136.289062 178.054688 132.03125 178.90625 C 132.03125 172.203125 132.03125 165.5 132.03125 158.59375 C 142.679688 155.585938 153.308594 152.609375 164.0625 150 C 164.320312 144.84375 164.578125 139.6875 164.84375 134.375 C 162.078125 134.867188 162.078125 134.867188 159.253906 135.371094 C 157.449219 135.695312 155.644531 136.015625 153.839844 136.335938 C 152.59375 136.554688 151.347656 136.777344 150.101562 137 C 148.300781 137.324219 146.503906 137.640625 144.703125 137.960938 C 144.152344 138.058594 143.605469 138.15625 143.039062 138.257812 C 142.507812 138.351562 141.976562 138.445312 141.429688 138.542969 C 140.972656 138.625 140.511719 138.707031 140.042969 138.789062 C 137.378906 139.203125 134.703125 139.507812 132.03125 139.84375 C 132.03125 115.609375 132.03125 91.375 132.03125 66.40625 Z M 132.03125 66.40625 "/>
<path style=" stroke:none;fill-rule:nonzero;fill:rgb(91.764706%,92.54902%,91.764706%);fill-opacity:1;" d="M 102.34375 66.40625 C 107.757812 66.40625 113.171875 66.40625 118.75 66.40625 C 118.75 103.53125 118.75 140.65625 118.75 178.90625 C 115.648438 178.390625 112.894531 177.855469 109.914062 177 C 107.238281 176.253906 104.574219 175.566406 101.855469 175 C 98.851562 174.359375 96.007812 173.4375 93.105469 172.4375 C 91.039062 171.753906 88.957031 171.234375 86.84375 170.722656 C 84.859375 170.238281 82.882812 169.71875 80.90625 169.1875 C 80.25 169.011719 79.589844 168.835938 78.910156 168.65625 C 75.757812 167.734375 72.648438 166.664062 69.53125 165.625 C 69.53125 159.179688 69.53125 152.734375 69.53125 146.09375 C 78.328125 147.851562 78.328125 147.851562 81.222656 148.582031 C 81.863281 148.742188 82.503906 148.902344 83.164062 149.066406 C 83.804688 149.230469 84.445312 149.394531 85.109375 149.5625 C 86.0625 149.800781 86.0625 149.800781 87.039062 150.042969 C 90.542969 150.925781 94.03125 151.84375 97.515625 152.796875 C 98.277344 153.007812 99.039062 153.214844 99.824219 153.429688 C 100.398438 153.585938 100.972656 153.746094 101.5625 153.90625 C 101.5625 153.460938 101.5625 153.015625 101.558594 152.554688 C 101.542969 141.710938 101.53125 130.867188 101.523438 120.027344 C 101.519531 114.785156 101.511719 109.539062 101.503906 104.296875 C 101.496094 99.242188 101.492188 94.1875 101.488281 89.128906 C 101.488281 87.195312 101.484375 85.261719 101.480469 83.328125 C 101.472656 80.632812 101.472656 77.933594 101.472656 75.238281 C 101.472656 74.429688 101.46875 73.621094 101.464844 72.789062 C 101.464844 72.058594 101.46875 71.328125 101.46875 70.574219 C 101.46875 69.933594 101.46875 69.296875 101.464844 68.636719 C 101.5625 67.1875 101.5625 67.1875 102.34375 66.40625 Z M 102.34375 66.40625 "/>
</g>
</svg>
