<?xml version="1.0" encoding="UTF-8"?>
<svg version="1.1" xmlns="http://www.w3.org/2000/svg" width="320" height="320">
<path d="M0 0 C71.28 0 142.56 0 216 0 C216 7.2694483 215.96072047 14.19760323 215.27868652 21.37750244 C215.20109903 22.24121798 215.12351153 23.10493352 215.0435729 23.99482226 C214.78612128 26.84632355 214.52101882 29.69705755 214.25585938 32.54785156 C214.06820441 34.60866639 213.88102769 36.66952481 213.69429016 38.73042297 C213.18881877 44.29403533 212.67670242 49.85701787 212.16334724 55.41990757 C211.62693714 61.24513895 211.09670084 67.07093226 210.5657959 72.89666748 C209.56078429 83.91457579 208.55026008 94.93197116 207.53773069 105.94919086 C206.38473157 118.49781092 205.23791509 131.04699361 204.09160519 143.59622622 C201.73459224 169.39811389 199.36985626 195.19928902 197 221 C194.00609545 221.95048418 191.01160395 222.89910647 188.01701355 223.84742737 C187.18011474 224.11314497 186.34321593 224.37886258 185.48095655 224.65263224 C177.54292637 227.16464902 169.56010015 229.5039369 161.55078125 231.77734375 C160.82797659 231.98270815 160.10517193 232.18807255 159.3604641 232.39966011 C155.5591704 233.47867553 151.75672201 234.55351121 147.95336914 235.62524414 C144.83730593 236.5042286 141.72396344 237.39205561 138.61254883 238.28735352 C134.80126453 239.38400042 130.98605387 240.46577771 127.16756248 241.53705025 C125.72971644 241.94300856 124.29328669 242.35402156 122.85842323 242.77039909 C120.85896052 243.34941953 118.85497656 243.90908051 116.84887695 244.46459961 C115.71593704 244.78625595 114.58299713 245.10791229 113.41572571 245.4393158 C106.54924053 246.56643492 100.15332555 244.66633683 93.58032227 242.80688477 C92.78096756 242.5856192 91.98161285 242.36435364 91.15803528 242.13638306 C88.54248452 241.41058987 85.92938306 240.67640765 83.31640625 239.94140625 C81.49185172 239.43168821 79.66721975 238.92224725 77.84251404 238.41307068 C74.03298927 237.34851274 70.22471977 236.27959864 66.41723633 235.20776367 C61.52812787 233.83198345 56.63561387 232.46877239 51.74205112 231.10893345 C47.9805457 230.06191762 44.22112981 229.00755642 40.46229362 227.95100212 C38.65798712 227.44496529 36.85297798 226.94142707 35.04727364 226.44040108 C32.533949 225.7420173 30.02366062 225.03363431 27.51391602 224.32250977 C26.76331909 224.11620438 26.01272217 223.90989899 25.23937988 223.69734192 C23.47461422 223.19154326 21.73374707 222.60361513 20 222 C18.41983409 218.83966818 18.46725909 215.37753594 18.15843201 211.89906311 C18.07999009 211.05165304 18.00154817 210.20424297 17.92072922 209.33115381 C17.65738184 206.47509878 17.39987686 203.61854676 17.14233398 200.76196289 C16.95533163 198.72039776 16.76798628 196.67886403 16.58032227 194.63735962 C16.07034504 189.07734623 15.56556448 183.51687224 15.06195331 177.95627904 C14.64108104 173.31446851 14.21768755 168.67288941 13.79428536 164.03130907 C12.7948176 153.07418265 11.79952366 142.11668257 10.80688477 131.15893555 C9.78361445 119.86375774 8.75381408 108.56918918 7.72067589 97.27491003 C6.83381421 87.57744154 5.95082317 77.879626 5.07095581 68.1815204 C4.54549945 62.39009801 4.01864321 56.59881203 3.48815727 50.80784798 C2.98875373 45.35412969 2.49421339 39.89999135 2.00333405 34.44549942 C1.82284132 32.44877768 1.64067741 30.45220616 1.45667458 28.45580482 C1.20469556 25.71886107 0.95891048 22.98142574 0.71458435 20.24378967 C0.64133845 19.46398697 0.56809255 18.68418428 0.49262708 17.88075119 C-0.03538983 11.8514959 0 6.12183382 0 0 Z " fill="#D3B62A" transform="translate(52,37)"/>
<path d="M0 0 C29.04 0 58.08 0 88 0 C88 7.64916348 87.88973585 14.95590155 87.17724609 22.52026367 C87.08924051 23.50141175 87.00123493 24.48255983 86.91056252 25.49343967 C86.61996621 28.71876921 86.32175473 31.94334496 86.0234375 35.16796875 C85.81488958 37.46498525 85.60681078 39.76204439 85.39916992 42.05914307 C84.84491169 48.17584959 84.28404176 54.29193277 83.72179413 60.40790939 C83.14356551 66.70982539 82.57141731 73.01229342 81.99853516 79.31469727 C80.77286747 92.78508724 79.53836905 106.25465784 78.30090332 119.72396851 C77.9297392 123.76495195 77.55910741 127.8059841 77.18851662 131.84702015 C75.47174543 150.56586584 73.74566364 169.2838236 72 188 C65.09612495 191.33715555 57.7376697 193.07806917 50.3515625 195.01171875 C48.92895282 195.38814408 47.50645903 195.76500762 46.08407593 196.14228821 C43.11792542 196.92791527 40.15090192 197.71011604 37.18310547 198.48950195 C33.37190143 199.49039322 29.5622491 200.49703978 25.75313759 201.50586224 C22.11975802 202.46796212 18.48571788 203.42755416 14.8515625 204.38671875 C13.80847364 204.66225869 13.80847364 204.66225869 12.74431229 204.9433651 C10.78905105 205.45930557 8.83325973 205.97323591 6.87744141 206.48706055 C5.76382233 206.78001511 4.65020325 207.07296967 3.50283813 207.37480164 C1 208 1 208 0 208 C0 139.36 0 70.72 0 0 Z " fill="#FBD626" transform="translate(160,57)"/>
<path d="M0 0 C22.44 0 44.88 0 68 0 C68 16 68 16 67 26 C51.82 26 36.64 26 21 26 C21 38.21 21 50.42 21 63 C31.78478103 61.68949883 31.78478103 61.68949883 42.56811523 60.3671875 C49.73181215 59.50113366 56.77012245 58.73437878 64 59 C63.01863938 74.75110225 61.92926366 90.49021709 60.63540649 106.21887207 C60.50374404 107.81961138 60.37318514 109.42044185 60.2437439 111.0213623 C60.06065887 113.27758061 59.87290981 115.53335947 59.68359375 117.7890625 C59.57587646 119.08537598 59.46815918 120.38168945 59.35717773 121.71728516 C59.23930908 122.80058105 59.12144043 123.88387695 59 125 C58.93345215 125.76828125 58.8669043 126.5365625 58.79833984 127.328125 C58 129 58 129 55.68041992 130.10302734 C54.64506104 130.3861377 53.60970215 130.66924805 52.54296875 130.9609375 C50.77252197 131.4554541 50.77252197 131.4554541 48.96630859 131.95996094 C47.6445566 132.30797598 46.32243935 132.6546061 45 133 C43.60356805 133.3749148 42.20724906 133.75025056 40.81103516 134.12597656 C37.08485202 135.11963238 33.3517062 136.0839021 29.61499023 137.03710938 C27.30403528 137.62716128 24.99474184 138.2234143 22.68554688 138.8203125 C21.18238617 139.20609756 19.67913403 139.59152662 18.17578125 139.9765625 C17.50259354 140.15055573 16.82940582 140.32454895 16.13581848 140.5038147 C10.77356961 141.86574556 5.44754095 142.91049181 0 144 C0 135.42 0 126.84 0 118 C13.63161702 114.14758649 27.23506509 110.34100362 41 107 C41.33 100.4 41.66 93.8 42 87 C38.45765625 87.63228516 38.45765625 87.63228516 34.84375 88.27734375 C32.53361532 88.68823404 30.22335701 89.09842228 27.91308594 89.50854492 C26.31855451 89.79199208 24.72415078 90.07615867 23.12988281 90.36108398 C20.82651158 90.77260619 18.52267987 91.1814621 16.21875 91.58984375 C15.51633179 91.71592514 14.81391357 91.84200653 14.09020996 91.97190857 C13.41010864 92.09195755 12.73000732 92.21200653 12.02929688 92.33569336 C11.44305542 92.4400621 10.85681396 92.54443085 10.25280762 92.65196228 C6.84620527 93.1782505 3.42039765 93.57245029 0 94 C0 62.98 0 31.96 0 0 Z " fill="#FEFEFB" transform="translate(169,85)"/>
<path d="M0 0 C6.93 0 13.86 0 21 0 C21 47.52 21 95.04 21 144 C17.03152077 143.33858679 13.50508763 142.65404728 9.6875 141.5625 C6.26320881 140.60332777 2.8560703 139.725477 -0.625 139 C-4.46966492 138.17761178 -8.11119507 137.00131431 -11.82421875 135.71875 C-14.46886183 134.84511566 -17.13343088 134.17838939 -19.83984375 133.52734375 C-22.38224373 132.90668553 -24.90990697 132.24097768 -27.4375 131.5625 C-28.28183594 131.33691406 -29.12617187 131.11132812 -29.99609375 130.87890625 C-34.03191149 129.69807531 -38.01076851 128.32974383 -42 127 C-42 118.75 -42 110.5 -42 102 C-30.74124343 104.25175131 -30.74124343 104.25175131 -27.03515625 105.18359375 C-26.21466797 105.38919922 -25.39417969 105.59480469 -24.54882812 105.80664062 C-23.72833984 106.01482422 -22.90785156 106.22300781 -22.0625 106.4375 C-20.83756836 106.74397461 -20.83756836 106.74397461 -19.58789062 107.05664062 C-15.10578349 108.18507701 -10.63952686 109.36244958 -6.18139648 110.58227539 C-5.20645737 110.84883438 -4.23151825 111.11539337 -3.22703552 111.39002991 C-2.4921138 111.59132004 -1.75719208 111.79261017 -1 112 C-1.00092179 111.42885751 -1.00184359 110.85771502 -1.00279331 110.26926517 C-1.02484956 96.39084823 -1.04134829 82.51243434 -1.05181217 68.63400364 C-1.05697489 61.92258132 -1.06401713 55.21117068 -1.07543945 48.49975586 C-1.08626565 42.02886264 -1.09227626 35.55798158 -1.09487724 29.08708 C-1.09673198 26.61221055 -1.1003535 24.1373418 -1.10573006 21.66247749 C-1.11293693 18.20929627 -1.11399109 14.75616599 -1.11352539 11.30297852 C-1.11712067 10.26864182 -1.12071594 9.23430511 -1.12442017 8.16862488 C-1.1230455 7.23327911 -1.12167084 6.29793335 -1.12025452 5.33424377 C-1.12117631 4.5166134 -1.1220981 3.69898302 -1.12304783 2.85657597 C-1 1 -1 1 0 0 Z " fill="#EAECEA" transform="translate(131,85)"/>
</svg>
