<?xml version="1.0" encoding="UTF-8"?>
<svg version="1.1" xmlns="http://www.w3.org/2000/svg" width="320" height="320">
<path d="M0 0 C1.39241757 1.23056829 2.7681793 2.48029035 4.125 3.75 C8.99226927 7.77384355 13.7969787 7.83519166 19.85522461 8.30932617 C34.72224017 9.52323985 46.7729897 14.6587619 59 23 C59.60473145 23.40943848 60.20946289 23.81887695 60.83251953 24.24072266 C64.96443346 27.06119823 69.00296068 29.99202082 73 33 C73.89847656 33.67160156 74.79695313 34.34320313 75.72265625 35.03515625 C90.1689091 46.34376142 102.70972536 59.84286359 113 75 C114.12728516 76.62421875 114.12728516 76.62421875 115.27734375 78.28125 C121.31643216 87.62927836 125.50682911 97.7825574 129.82714844 108.00024414 C134.38729296 118.7601874 139.35924026 129.28196669 144.5065918 139.77197266 C145.06515869 140.91069824 145.62372559 142.04942383 146.19921875 143.22265625 C146.69252686 144.22047119 147.18583496 145.21828613 147.6940918 146.24633789 C149 149 149 149 150.0612793 151.80712891 C150.77292976 154.13832541 150.77292976 154.13832541 152.8203125 154.86328125 C153.58085937 155.01152344 154.34140625 155.15976563 155.125 155.3125 C177.02223103 161.00703853 202.60097291 179.15558461 216.06640625 197.1328125 C217 199 217 199 217 203 C209.82403093 205.6010582 202.57464657 206.81054499 195.04174805 207.8215332 C189.43682876 208.61709634 184.31019584 210.04223652 179 212 C183.49953426 216.2603338 188.02210208 219.72027436 193.375 222.875 C199.63401665 226.62026807 204.7911107 230.92040937 210 236 C210.62390625 236.58523437 211.2478125 237.17046875 211.890625 237.7734375 C225.05374406 250.4029166 225.05374406 250.4029166 226 258 C222.20109104 256.6619772 219.43125504 254.97380503 216.3125 252.4375 C213.31223679 249.97527569 213.31223679 249.97527569 210 248 C210 247.34 210 246.68 210 246 C209.05447266 245.64421875 209.05447266 245.64421875 208.08984375 245.28125 C189.32823188 237.50146657 171.78920234 228.3823311 160.9375 210.625 C159.89809984 207.71467956 159.85568775 206.80775151 161 204 C163.73334022 202.11208827 166.88460359 201.11894268 170 200 C170.77214844 199.72027344 171.54429687 199.44054687 172.33984375 199.15234375 C181.59750686 196.24195677 191.3782394 195.7875563 201 195 C199.73299277 194.0158875 198.4612381 193.03788503 197.1875 192.0625 C196.47980469 191.51722656 195.77210938 190.97195312 195.04296875 190.41015625 C192.95874948 188.83143752 192.95874948 188.83143752 190 188 C190 187.34 190 186.68 190 186 C189.44570313 185.73832031 188.89140625 185.47664062 188.3203125 185.20703125 C185.71838523 183.85350343 183.32567664 182.29865913 180.875 180.6875 C173.64375386 176.07710233 166.75105136 172.42507481 158.5 170 C150.60289889 167.6784201 142.54115424 165.2982836 138 158 C137.51917969 157.24332031 137.03835937 156.48664063 136.54296875 155.70703125 C133.9521091 151.54022291 131.69083045 147.44158985 129.79711914 142.90576172 C128.33634621 139.41332879 126.78599898 135.95984992 125.25 132.5 C124.90074463 131.71318848 124.55148926 130.92637695 124.19165039 130.11572266 C121.71624403 124.5596487 119.17482277 119.03855926 116.56860352 113.54272461 C115.09307834 110.41311282 113.6800139 107.27259184 112.359375 104.07421875 C105.49967815 87.5200225 96.09084352 72.78379157 83.17578125 60.26171875 C81 58 81 58 81 56 C80.34 56 79.68 56 79 56 C78.43023437 55.28328125 77.86046875 54.5665625 77.2734375 53.828125 C74.71512733 50.64562232 71.83645465 48.22782837 68.625 45.75 C68.01068115 45.27401367 67.3963623 44.79802734 66.76342773 44.30761719 C49.99884217 31.49756812 33.23864759 22.34105275 11.890625 20.96484375 C6.52173945 20.50736636 3.33601009 19.43692565 -1 16 C-6.41886352 12.03679197 -11.95794503 8.89626744 -18.0625 6.125 C-18.7229834 5.81457764 -19.3834668 5.50415527 -20.06396484 5.18432617 C-24.91679105 3.05723279 -28.71066897 2.70516549 -34 3 C-34.80577984 5.30816936 -35.10350133 6.63668919 -34.42578125 9.015625 C-31.1865735 15.51677177 -27.08380614 21.12347615 -22.54223633 26.76269531 C-14.28225446 37.26931732 -10.35213957 49.29889988 -6.52148438 61.93359375 C-3.27587889 72.18102084 1.16148539 81.70737171 8.8359375 89.40234375 C10.45565903 91.62538437 10.76930555 93.25950899 11 96 C10.328125 98.9453125 10.328125 98.9453125 9.25 102.125 C8.87746094 103.26710938 8.50492188 104.40921875 8.12109375 105.5859375 C7.75113281 106.71257812 7.38117188 107.83921875 7 109 C1.23280811 128.02424338 0.99653002 148.78367701 10 167 C12.53325678 169.84780717 12.53325678 169.84780717 15 172 C15.18175781 170.88882813 15.36351562 169.77765625 15.55078125 168.6328125 C20.05345386 141.68348313 20.05345386 141.68348313 31 132 C34.34560562 134.65307501 35.2554481 138.10058911 36.5625 142 C45.12291091 165.96859985 59.72994011 188.39163242 78 206 C77.67 206.66 77.34 207.32 77 208 C73.62439986 206.47981056 70.94048371 204.50673803 68.0625 202.1875 C67.22847656 201.52105469 66.39445312 200.85460937 65.53515625 200.16796875 C62.88167346 197.89881167 60.46240098 195.47388963 58 193 C56.2544971 191.47400732 54.50434673 189.95331713 52.75 188.4375 C43.77166942 180.29295785 37.41409565 170.78572781 32 160 C31.82984375 161.15757812 31.6596875 162.31515625 31.484375 163.5078125 C31.24035779 165.04699798 30.99552264 166.58605394 30.75 168.125 C30.58564453 169.26582031 30.58564453 169.26582031 30.41796875 170.4296875 C29.4840525 176.13149198 27.98490934 180.73558602 23.1875 184.375 C18.65711317 185.66939624 15.23436788 185.61718394 11 183.5 C-1.63017686 172.97485261 -6.0364837 158.95139787 -8 143 C-9.01344516 128.34657988 -6.81029475 113.56173511 -1.8125 99.75 C-0.96902163 96.80699395 -0.64350736 95.66969689 -2.09375 92.9453125 C-3.29537803 91.49789692 -4.54205984 90.0872457 -5.8203125 88.70703125 C-10.4599238 82.94493334 -13.06080285 75.74306508 -16 69 C-16.4021875 68.08992188 -16.804375 67.17984375 -17.21875 66.2421875 C-19.63189867 60.50122896 -21.44931051 54.57420193 -23.25073242 48.61889648 C-24.34673136 45.00312429 -25.531697 41.48216813 -27 38 C-27.66 38 -28.32 38 -29 38 C-29.495 37.05125 -29.99 36.1025 -30.5 35.125 C-32.35047616 31.85209377 -34.52824042 29.07041363 -36.9375 26.1875 C-41.52659639 20.53476258 -46.10754015 14.38917553 -46.5625 6.875 C-45.70152862 0.94386381 -43.80304653 -3.24202963 -39.5 -7.4375 C-27.55837169 -14.9010177 -10.67590394 -6.43291647 0 0 Z " fill="#176E93" transform="translate(92,14)"/>
<path d="M0 0 C4.30549783 3.56741248 6.15057315 8.78026251 8.2890625 13.828125 C8.7119606 14.8127774 8.7119606 14.8127774 9.1434021 15.81732178 C10.03649913 17.89761193 10.92489661 19.97986057 11.8125 22.0625 C12.7076691 24.15923191 13.60388593 26.25549056 14.50302124 28.3505249 C15.06079875 29.65047449 15.61622928 30.95143408 16.1690979 32.253479 C17.32674772 35.25285332 17.32674772 35.25285332 19.1875 37.8125 C19.62094727 36.83901611 20.05439453 35.86553223 20.50097656 34.86254883 C22.11876121 31.23438132 23.74617823 27.61060205 25.37646484 23.98803711 C26.07927593 22.42280275 26.77950729 20.8564073 27.47705078 19.28881836 C28.48305887 17.0292467 29.4984249 14.77408274 30.515625 12.51953125 C30.82308655 11.82350296 31.1305481 11.12747467 31.44732666 10.41035461 C33.25803234 6.42506983 35.1523023 3.03805985 38.1875 -0.1875 C43.36668395 -1.91389465 47.63462666 -1.80864934 52.625 0.1875 C55.1875 1.8125 55.1875 1.8125 56.1875 3.8125 C56.27713847 5.29350811 56.30507925 6.77849424 56.30102539 8.26220703 C56.30091209 9.64341232 56.30091209 9.64341232 56.30079651 11.05252075 C56.29563522 12.04839203 56.29047394 13.04426331 56.28515625 14.0703125 C56.2837413 15.08850067 56.28232635 16.10668884 56.28086853 17.1557312 C56.275259 20.41635035 56.26270488 23.67690151 56.25 26.9375 C56.24498623 29.14453026 56.24042311 31.35156159 56.23632812 33.55859375 C56.22528647 38.97658881 56.20801543 44.39453286 56.1875 49.8125 C52.2275 49.8125 48.2675 49.8125 44.1875 49.8125 C43.6925 32.4875 43.6925 32.4875 43.1875 14.8125 C39.04077978 24.1296566 39.04077978 24.1296566 34.90112305 33.44995117 C34.38074463 34.61502197 33.86036621 35.78009277 33.32421875 36.98046875 C32.79530029 38.16922607 32.26638184 39.3579834 31.72143555 40.58276367 C28.0913594 48.22597191 28.0913594 48.22597191 25.20703125 50.09765625 C24.47871094 50.35417969 23.75039063 50.61070312 23 50.875 C22.28457031 51.15472656 21.56914063 51.43445313 20.83203125 51.72265625 C16.45715741 51.87128564 13.51329417 50.66462413 10.1875 47.8125 C7.56673282 43.7571449 5.73573323 39.44576236 3.875 35 C3.10833008 33.25493164 3.10833008 33.25493164 2.32617188 31.47460938 C0.92099081 28.26407214 -0.45045023 25.04152128 -1.8125 21.8125 C-2.8025 19.5025 -3.7925 17.1925 -4.8125 14.8125 C-5.1425 26.3625 -5.4725 37.9125 -5.8125 49.8125 C-11.2575 50.3075 -11.2575 50.3075 -16.8125 50.8125 C-18.37554582 49.24945418 -17.96285954 47.71276649 -17.98950195 45.53979492 C-18.00233719 44.63182663 -18.01517242 43.72385834 -18.02839661 42.78837585 C-18.03578354 41.79989151 -18.04317047 40.81140717 -18.05078125 39.79296875 C-18.06288887 38.27779411 -18.06288887 38.27779411 -18.07524109 36.73200989 C-18.08910061 34.58917975 -18.09981436 32.44632737 -18.10766602 30.3034668 C-18.12487327 27.0241512 -18.16874248 23.74584483 -18.21289062 20.46679688 C-18.22301747 18.38802827 -18.2315336 16.30925107 -18.23828125 14.23046875 C-18.25578934 13.2480571 -18.27329742 12.26564545 -18.29133606 11.25346375 C-18.26965959 4.45597049 -18.26965959 4.45597049 -15.97338867 1.22387695 C-11.03327509 -2.00274113 -5.34208684 -2.25554778 0 0 Z " fill="#0A678E" transform="translate(17.8125,256.1875)"/>
<path d="M0 0 C1.2890625 -0.01611328 2.578125 -0.03222656 3.90625 -0.04882812 C11.90966277 -0.05293665 18.63741757 0.04063749 25.0625 5.3125 C28.97779856 10.32408216 27.84819408 16.9794377 27.86523438 23.02661133 C27.87491783 25.10734373 27.90594366 27.18707832 27.9375 29.26757812 C27.94403307 30.60155667 27.94928235 31.93554224 27.953125 33.26953125 C27.96714355 35.07901245 27.96714355 35.07901245 27.98144531 36.92504883 C27.48667016 41.62710725 25.96881495 44.96868505 22.625 48.3125 C27.08 52.2725 27.08 52.2725 31.625 56.3125 C31.13 57.3025 31.13 57.3025 30.625 58.3125 C18.81867261 58.87076767 18.81867261 58.87076767 14.625 55.3125 C13.75838745 54.28286133 13.75838745 54.28286133 12.87426758 53.23242188 C9.95987099 50.74476152 8.36659523 50.82769397 4.57421875 50.84375 C3.40052734 50.82957031 2.22683594 50.81539063 1.01757812 50.80078125 C-1.44075533 50.80855669 -3.89908866 50.81636883 -6.35742188 50.82421875 C-14.44035197 50.72688735 -19.36819115 50.29452447 -25.26953125 44.4296875 C-29.95468442 35.45670863 -28.68747743 17.72587648 -26.12890625 8.08203125 C-24.86599391 5.11778623 -23.12976717 3.87770862 -20.375 2.3125 C-13.62098201 -0.33107887 -7.16212424 -0.01779852 0 0 Z M-13.375 11.3125 C-13.86393343 15.94011116 -13.74540694 20.59952683 -13.75 25.25 C-13.77449219 26.55130859 -13.79898438 27.85261719 -13.82421875 29.19335938 C-13.82808594 30.43794922 -13.83195313 31.68253906 -13.8359375 32.96484375 C-13.84415527 34.10945068 -13.85237305 35.25405762 -13.86083984 36.43334961 C-13.64466073 39.40273537 -13.64466073 39.40273537 -11.50732422 41.19091797 C-8.86786958 42.57924572 -7.08973794 42.61702913 -4.125 42.5 C-3.23296875 42.47292969 -2.3409375 42.44585937 -1.421875 42.41796875 C-0.40867188 42.36576172 -0.40867188 42.36576172 0.625 42.3125 C-1.5885536 39.48831093 -3.80938995 36.81929951 -6.375 34.3125 C6.21782511 34.49994395 6.21782511 34.49994395 9.66796875 36.4921875 C11 37.875 11 37.875 12.625 40.3125 C13.615 39.9825 14.605 39.6525 15.625 39.3125 C15.67439662 35.36153022 15.71071755 31.4106797 15.73486328 27.45947266 C15.74988107 25.4533864 15.77528981 23.44738676 15.80078125 21.44140625 C15.80722656 20.18457031 15.81367188 18.92773438 15.8203125 17.6328125 C15.83078613 16.47023926 15.84125977 15.30766602 15.85205078 14.10986328 C15.91761997 11.17339721 15.91761997 11.17339721 13.625 9.3125 C11.03755561 9.00116414 11.03755561 9.00116414 8.03125 9.046875 C6.91878906 9.04429687 5.80632812 9.04171875 4.66015625 9.0390625 C3.49355469 9.04679687 2.32695312 9.05453125 1.125 9.0625 C-0.04160156 9.05476563 -1.20820313 9.04703125 -2.41015625 9.0390625 C-3.52261719 9.04164063 -4.63507813 9.04421875 -5.78125 9.046875 C-7.31749023 9.05025879 -7.31749023 9.05025879 -8.88476562 9.05371094 C-11.54882203 9.06616928 -11.54882203 9.06616928 -13.375 11.3125 Z " fill="#E4920A" transform="translate(219.375,255.6875)"/>
<path d="M0 0 C1.97909398 -0.02686553 3.95828971 -0.04633375 5.9375 -0.0625 C7.03964844 -0.07410156 8.14179687 -0.08570313 9.27734375 -0.09765625 C12 0 12 0 13 1 C13.08737645 2.85369611 13.10698153 4.71067541 13.09765625 6.56640625 C13.09515869 7.57904541 13.09266113 8.59168457 13.09008789 9.63500977 C13.08098389 10.93108154 13.07187988 12.22715332 13.0625 13.5625 C13.0315625 19.7190625 13.0315625 19.7190625 13 26 C26.365 26.495 26.365 26.495 40 27 C39.67 18.09 39.34 9.18 39 0 C43.29 0 47.58 0 52 0 C52.04945571 5.76577504 52.0857461 11.53142646 52.10986328 17.29736328 C52.11991783 19.25864818 52.13356333 21.21991811 52.15087891 23.18115234 C52.17515113 26.00101418 52.18648859 28.82067772 52.1953125 31.640625 C52.20563507 32.51680481 52.21595764 33.39298462 52.22659302 34.29571533 C52.22681961 35.52653839 52.22681961 35.52653839 52.22705078 36.78222656 C52.231492 37.50170471 52.23593323 38.22118286 52.24050903 38.96246338 C51.83800582 42.37237702 50.6321878 44.44938482 48.0625 46.6875 C44.94115409 48.67381104 42.41813329 49.12437878 38.80395508 49.11352539 C37.96331009 49.11344986 37.1226651 49.11337433 36.25654602 49.11329651 C35.35333115 49.10813522 34.45011627 49.10297394 33.51953125 49.09765625 C32.59154221 49.0962413 31.66355316 49.09482635 30.70744324 49.09336853 C27.74242942 49.08776937 24.77749101 49.07521704 21.8125 49.0625 C19.80273547 49.05748489 17.79296975 49.052922 15.78320312 49.04882812 C10.85543968 49.03780021 5.92773263 49.02053617 1 49 C0.61936779 46.6739143 0.28730055 44.33944736 0 42 C2.0568946 39.9431054 6.35555998 40.74252924 9.19140625 40.68359375 C10.01124496 40.66281265 10.83108368 40.64203156 11.67576599 40.62062073 C14.30458901 40.55503506 16.93351504 40.49619874 19.5625 40.4375 C21.34050561 40.39432333 23.11850065 40.35070933 24.89648438 40.30664062 C29.26421634 40.19934457 33.63205227 40.09810296 38 40 C38.66 38.35 39.32 36.7 40 35 C38.74509766 35.03927612 38.74509766 35.03927612 37.46484375 35.0793457 C34.32640072 35.16514893 31.18856026 35.22752807 28.04931641 35.2746582 C26.03637747 35.31182827 24.02398163 35.3753997 22.01171875 35.43945312 C14.50350646 35.5337774 8.59528639 35.43936104 3 30 C-0.11242698 26.69183424 -0.35895617 24.40901962 -0.29296875 19.921875 C-0.2784668 18.18164062 -0.2784668 18.18164062 -0.26367188 16.40625 C-0.23853516 15.1996875 -0.21339844 13.993125 -0.1875 12.75 C-0.17396484 11.52796875 -0.16042969 10.3059375 -0.14648438 9.046875 C-0.1111398 6.03080502 -0.0617956 3.01562513 0 0 Z " fill="#0E688E" transform="translate(81,271)"/>
<path d="M0 0 C1.25456245 0.00424484 1.25456245 0.00424484 2.5344696 0.00857544 C5.19370101 0.0197293 7.85258993 0.04482487 10.51171875 0.0703125 C12.31965658 0.08034851 14.12759971 0.08947327 15.93554688 0.09765625 C20.35690187 0.11965291 24.77800233 0.15414956 29.19921875 0.1953125 C29.19921875 3.1653125 29.19921875 6.1353125 29.19921875 9.1953125 C11.87421875 9.6903125 11.87421875 9.6903125 -5.80078125 10.1953125 C-5.80078125 13.1653125 -5.80078125 16.1353125 -5.80078125 19.1953125 C-3.44132827 20.37503899 -1.92414194 20.34978261 0.70703125 20.40625 C2.06441406 20.44878906 2.06441406 20.44878906 3.44921875 20.4921875 C5.34226665 20.54362902 7.23551944 20.58808159 9.12890625 20.625 C16.11568746 20.86184004 22.01079639 21.72428517 27.69921875 26.1328125 C30.05596684 30.94450651 29.97507736 35.93904515 29.19921875 41.1953125 C27.40129104 45.78925706 24.72434875 47.32015044 20.47434998 49.36169434 C16.68402182 50.75048737 13.10095231 50.69036329 9.10546875 50.5859375 C7.85727356 50.57744781 7.85727356 50.57744781 6.5838623 50.56878662 C3.95503465 50.54659434 1.32762658 50.49643383 -1.30078125 50.4453125 C-3.09503224 50.42522518 -4.88930484 50.40697834 -6.68359375 50.390625 C-11.05652727 50.34678633 -15.42841453 50.27788189 -19.80078125 50.1953125 C-19.84319848 47.86236475 -19.84171062 45.52828683 -19.80078125 43.1953125 C-17.93222825 41.3267595 -14.78063912 41.97581231 -12.28125 41.9140625 C-11.62627029 41.89565308 -10.97129059 41.87724365 -10.29646301 41.85827637 C-8.19382948 41.7993718 -6.09111195 41.74666544 -3.98828125 41.6953125 C-1.23160605 41.62748124 1.52482139 41.55369904 4.28125 41.4765625 C6.12553589 41.43112305 6.12553589 41.43112305 8.00708008 41.38476562 C11.36814948 41.28386143 11.36814948 41.28386143 15.19921875 40.1953125 C15.69421875 35.2453125 15.69421875 35.2453125 16.19921875 30.1953125 C15.02746094 30.23011719 13.85570312 30.26492188 12.6484375 30.30078125 C-4.64098304 30.66358652 -4.64098304 30.66358652 -12.80078125 27.1953125 C-13.45949219 26.93621094 -14.11820313 26.67710937 -14.796875 26.41015625 C-16.48828125 25.4453125 -16.48828125 25.4453125 -18.80078125 22.1953125 C-19.57766518 17.09986789 -19.79169418 12.2882728 -18.80078125 7.1953125 C-13.49983451 0.4368375 -8.02905402 -0.10290634 0 0 Z " fill="#E39310" transform="translate(158.80078125,255.8046875)"/>
<path d="M0 0 C3.96 0 7.92 0 12 0 C12.33 13.2 12.66 26.4 13 40 C17.19680119 40.83936024 20.80357637 41.18989376 25.05078125 41.31640625 C26.03899117 41.3475779 26.03899117 41.3475779 27.04716492 41.37937927 C29.13551185 41.44435489 31.22397612 41.50351575 33.3125 41.5625 C34.7350378 41.60573479 36.15756406 41.6493506 37.58007812 41.69335938 C41.05326297 41.79998216 44.52657726 41.90139348 48 42 C48 44.64 48 47.28 48 50 C43.01956391 50.07461471 38.03945911 50.12881987 33.05859375 50.16479492 C31.36712978 50.17980505 29.67570422 50.20021963 27.984375 50.22631836 C25.54156976 50.26304686 23.0992827 50.27980411 20.65625 50.29296875 C19.53700134 50.31619453 19.53700134 50.31619453 18.3951416 50.33988953 C11.91041215 50.34192995 6.56297315 49.15628442 1.52441406 44.91723633 C-0.68133947 40.69613625 -0.49912803 37.0169218 -0.390625 32.32421875 C-0.38496521 31.3990596 -0.37930542 30.47390045 -0.37347412 29.52070618 C-0.3511448 26.57577014 -0.30095486 23.63206614 -0.25 20.6875 C-0.22993054 18.68686657 -0.21168055 16.68621401 -0.1953125 14.68554688 C-0.15129125 9.78989236 -0.08228747 4.89515482 0 0 Z " fill="#E49107" transform="translate(252,256)"/>
<path d="M0 0 C3.2883921 2.71292348 3.90851499 4.34816929 4.5 8.5625 C4 12 4 12 2.375 14.375 C-0.56278062 16.38506043 -2.4396496 16.92733979 -6 17 C-9.52906067 15.39588152 -10.82772908 14.25840638 -13 11 C-13.22689928 7.24859854 -12.76726505 3.98209927 -10.4375 1 C-6.8943448 -0.45360213 -3.76307528 -0.80967808 0 0 Z M-9 5 C-9 7.31 -9 9.62 -9 12 C-8.67 12 -8.34 12 -8 12 C-8 9.69 -8 7.38 -8 5 C-8.33 5 -8.66 5 -9 5 Z M0 6 C-0.66 7.32 -1.32 8.64 -2 10 C-1.01 10 -0.02 10 1 10 C0.67 8.68 0.34 7.36 0 6 Z M-5 10 C-5 10.99 -5 11.98 -5 13 C-4.34 12.67 -3.68 12.34 -3 12 C-3.66 11.34 -4.32 10.68 -5 10 Z " fill="#E49C24" transform="translate(316,290)"/>
<path d="M0 0 C8.00329877 -0.78463713 8.00329877 -0.78463713 11.9375 2.3125 C16.01748216 7.62884038 16.01748216 7.62884038 15.8984375 10.15625 C15.72570312 10.9296875 15.55296875 11.703125 15.375 12.5 C15.13910156 13.66015625 15.13910156 13.66015625 14.8984375 14.84375 C13.78785233 17.50915441 12.40248727 18.47025301 10 20 C9.62488281 19.27554688 9.24976562 18.55109375 8.86328125 17.8046875 C5.47302722 11.30949665 5.47302722 11.30949665 1.0625 5.5 C0.381875 4.675 -0.29875 3.85 -1 3 C-0.67 2.01 -0.34 1.02 0 0 Z " fill="#227597" transform="translate(101,50)"/>
<path d="M0 0 C5.33333333 5.33333333 10.66666667 10.66666667 16 16 C15.67 16.66 15.34 17.32 15 18 C11.61769342 16.47326439 8.89740051 14.49747022 6 12.1875 C5.154375 11.52105469 4.30875 10.85460937 3.4375 10.16796875 C0.95829257 7.96290445 -1.00589632 5.64495697 -3 3 C-1.68 3.33 -0.36 3.66 1 4 C0.67 2.68 0.34 1.36 0 0 Z " fill="#75A4B3" transform="translate(154,204)"/>
<path d="M0 0 C3.625 -0.1875 3.625 -0.1875 7 0 C7 0.66 7 1.32 7 2 C6.01 2 5.02 2 4 2 C4.66 2.33 5.32 2.66 6 3 C5.979375 3.928125 5.95875 4.85625 5.9375 5.8125 C5.84230396 9.02286011 5.84230396 9.02286011 7 12 C6.01 12.33 5.02 12.66 4 13 C3.67 11.35 3.34 9.7 3 8 C2.34 8 1.68 8 1 8 C1 9.65 1 11.3 1 13 C0.01 12.67 -0.98 12.34 -2 12 C-2.05422947 10.5629191 -2.09289723 9.12524538 -2.125 7.6875 C-2.14820313 6.88699219 -2.17140625 6.08648437 -2.1953125 5.26171875 C-2 3 -2 3 0 0 Z " fill="#E69511" transform="translate(309,291)"/>
<path d="M0 0 C2.33333333 2.33333333 4.66666667 4.66666667 7 7 C7 7.99 7 8.98 7 10 C2.62140745 9.49477778 0.18348776 6.82172778 -3 4 C-2.34 3.67 -1.68 3.34 -1 3 C-0.34 3.33 0.32 3.66 1 4 C0.67 2.68 0.34 1.36 0 0 Z " fill="#5895AD" transform="translate(154,204)"/>
<path d="M0 0 C0 0.33 0 0.66 0 1 C-2.31 1 -4.62 1 -7 1 C-7.66 4.3 -8.32 7.6 -9 11 C-9.66 9.68 -10.32 8.36 -11 7 C-11.66 8.32 -12.32 9.64 -13 11 C-12.51896922 3.6642806 -12.51896922 3.6642806 -10.4375 1 C-6.85516698 -0.46967509 -3.85751467 -0.19287573 0 0 Z " fill="#E4A336" transform="translate(316,290)"/>
<path d="M0 0 C0.99 0.33 1.98 0.66 3 1 C3.33 2.98 3.66 4.96 4 7 C3.01 6.01 2.02 5.02 1 4 C-0.98 4.99 -0.98 4.99 -3 6 C-3 6.66 -3 7.32 -3 8 C-3.66 7.67 -4.32 7.34 -5 7 C-3.35 4.69 -1.7 2.38 0 0 Z " fill="#5D96AB" transform="translate(122,146)"/>
<path d="M0 0 C1.45742463 -0.08096803 2.91612807 -0.13917774 4.375 -0.1875 C5.18710938 -0.22230469 5.99921875 -0.25710937 6.8359375 -0.29296875 C7.55007812 -0.19628906 8.26421875 -0.09960938 9 0 C9.66 0.99 10.32 1.98 11 3 C7.7 2.67 4.4 2.34 1 2 C0.67 2.66 0.34 3.32 0 4 C0 2.68 0 1.36 0 0 Z " fill="#5C97AE" transform="translate(101,50)"/>
<path d="M0 0 C1.32 1.32 2.64 2.64 4 4 C-0.0527516 4.98248524 -3.83861737 5.08159574 -8 5 C-8 4.34 -8 3.68 -8 3 C-5.36 2.67 -2.72 2.34 0 2 C0 1.34 0 0.68 0 0 Z " fill="#E0AF59" transform="translate(247,309)"/>
<path d="M0 0 C3 3.625 3 3.625 3 7 C-1.875 5.25 -1.875 5.25 -3 3 C-2.34 3 -1.68 3 -1 3 C-0.67 2.01 -0.34 1.02 0 0 Z " fill="#5F99B1" transform="translate(315,265)"/>
</svg>
