<?xml version="1.0" encoding="UTF-8"?>
<svg xmlns="http://www.w3.org/2000/svg" xmlns:xlink="http://www.w3.org/1999/xlink" width="250px" height="250px" viewBox="0 0 250 250" version="1.1">
<g id="surface1">
<path style=" stroke:none;fill-rule:nonzero;fill:rgb(9.019608%,43.137255%,57.647061%);fill-opacity:1;" d="M 71.875 10.9375 C 72.960938 11.898438 74.039062 12.875 75.097656 13.867188 C 78.898438 17.011719 82.652344 17.058594 87.386719 17.429688 C 99 18.378906 108.417969 22.390625 117.96875 28.90625 C 118.441406 29.226562 118.914062 29.546875 119.402344 29.875 C 122.628906 32.078125 125.785156 34.367188 128.90625 36.71875 C 129.609375 37.242188 130.308594 37.769531 131.035156 38.308594 C 142.320312 47.144531 152.117188 57.691406 160.15625 69.53125 C 161.035156 70.800781 161.035156 70.800781 161.933594 72.09375 C 166.652344 79.398438 169.925781 87.332031 173.300781 95.3125 C 176.863281 103.71875 180.75 111.9375 184.769531 120.132812 C 185.207031 121.023438 185.644531 121.914062 186.09375 122.832031 C 186.480469 123.609375 186.863281 124.390625 187.261719 125.191406 C 188.28125 127.34375 188.28125 127.34375 189.109375 129.535156 C 189.667969 131.359375 189.667969 131.359375 191.265625 131.925781 C 191.859375 132.039062 192.453125 132.15625 193.066406 132.273438 C 210.171875 136.722656 230.15625 150.902344 240.675781 164.949219 C 241.40625 166.40625 241.40625 166.40625 241.40625 169.53125 C 235.800781 171.5625 230.136719 172.507812 224.25 173.296875 C 219.871094 173.917969 215.867188 175.03125 211.71875 176.5625 C 215.234375 179.890625 218.765625 182.59375 222.949219 185.058594 C 227.839844 187.984375 231.867188 191.34375 235.9375 195.3125 C 236.425781 195.769531 236.914062 196.226562 237.414062 196.699219 C 247.699219 206.566406 247.699219 206.566406 248.4375 212.5 C 245.46875 211.453125 243.304688 210.136719 240.867188 208.15625 C 238.523438 206.230469 238.523438 206.230469 235.9375 204.6875 C 235.9375 204.171875 235.9375 203.65625 235.9375 203.125 C 235.199219 202.847656 235.199219 202.847656 234.445312 202.5625 C 219.789062 196.484375 206.085938 189.359375 197.609375 175.488281 C 196.796875 173.214844 196.761719 172.507812 197.65625 170.3125 C 199.792969 168.835938 202.253906 168.0625 204.6875 167.1875 C 205.289062 166.96875 205.894531 166.75 206.515625 166.523438 C 213.75 164.25 221.390625 163.898438 228.90625 163.28125 C 227.917969 162.511719 226.921875 161.75 225.929688 160.984375 C 225.375 160.558594 224.820312 160.132812 224.253906 159.695312 C 222.625 158.460938 222.625 158.460938 220.3125 157.8125 C 220.3125 157.296875 220.3125 156.78125 220.3125 156.25 C 219.878906 156.046875 219.445312 155.839844 219 155.628906 C 216.96875 154.574219 215.097656 153.359375 213.183594 152.101562 C 207.535156 148.496094 202.148438 145.644531 195.703125 143.75 C 189.535156 141.9375 183.234375 140.078125 179.6875 134.375 C 179.3125 133.785156 178.9375 133.191406 178.550781 132.582031 C 176.523438 129.328125 174.757812 126.125 173.277344 122.582031 C 172.136719 119.855469 170.925781 117.15625 169.726562 114.453125 C 169.453125 113.839844 169.179688 113.222656 168.898438 112.589844 C 166.964844 108.25 164.980469 103.9375 162.945312 99.644531 C 161.792969 97.199219 160.6875 94.746094 159.65625 92.246094 C 154.296875 79.3125 146.945312 67.800781 136.855469 58.015625 C 135.15625 56.25 135.15625 56.25 135.15625 54.6875 C 134.640625 54.6875 134.125 54.6875 133.59375 54.6875 C 133.148438 54.128906 132.703125 53.566406 132.246094 52.992188 C 130.246094 50.503906 127.996094 48.617188 125.488281 46.679688 C 125.007812 46.308594 124.527344 45.9375 124.035156 45.554688 C 110.9375 35.546875 97.84375 28.390625 81.164062 27.316406 C 76.96875 26.957031 74.480469 26.121094 71.09375 23.4375 C 66.859375 20.339844 62.53125 17.886719 57.765625 15.722656 C 57.246094 15.480469 56.730469 15.238281 56.199219 14.988281 C 52.410156 13.324219 49.445312 13.050781 45.3125 13.28125 C 44.683594 15.085938 44.449219 16.121094 44.980469 17.980469 C 47.511719 23.058594 50.714844 27.441406 54.265625 31.847656 C 60.71875 40.054688 63.789062 49.453125 66.78125 59.324219 C 69.316406 67.328125 72.78125 74.769531 78.777344 80.78125 C 80.042969 82.519531 80.289062 83.796875 80.46875 85.9375 C 79.945312 88.238281 79.945312 88.238281 79.101562 90.722656 C 78.808594 91.613281 78.519531 92.507812 78.21875 93.425781 C 77.929688 94.308594 77.640625 95.1875 77.34375 96.09375 C 72.839844 110.957031 72.652344 127.175781 79.6875 141.40625 C 81.667969 143.632812 81.667969 143.632812 83.59375 145.3125 C 83.734375 144.445312 83.878906 143.578125 84.023438 142.683594 C 87.542969 121.628906 87.542969 121.628906 96.09375 114.0625 C 98.707031 116.136719 99.417969 118.828125 100.4375 121.875 C 107.128906 140.601562 118.539062 158.117188 132.8125 171.875 C 132.554688 172.390625 132.296875 172.90625 132.03125 173.4375 C 129.394531 172.25 127.296875 170.707031 125.046875 168.898438 C 124.398438 168.375 123.746094 167.855469 123.074219 167.320312 C 121 165.546875 119.109375 163.652344 117.1875 161.71875 C 115.824219 160.527344 114.457031 159.339844 113.085938 158.15625 C 106.070312 151.792969 101.105469 144.363281 96.875 135.9375 C 96.742188 136.84375 96.609375 137.746094 96.472656 138.679688 C 96.28125 139.878906 96.089844 141.082031 95.898438 142.285156 C 95.769531 143.175781 95.769531 143.175781 95.640625 144.085938 C 94.910156 148.539062 93.738281 152.136719 89.992188 154.980469 C 86.449219 155.992188 83.777344 155.949219 80.46875 154.296875 C 70.601562 146.074219 67.160156 135.117188 65.625 122.65625 C 64.832031 111.207031 66.554688 99.65625 70.460938 88.867188 C 71.117188 86.566406 71.371094 85.679688 70.238281 83.550781 C 69.300781 82.421875 68.328125 81.316406 67.328125 80.238281 C 63.703125 75.738281 61.671875 70.113281 59.375 64.84375 C 59.0625 64.132812 58.746094 63.421875 58.421875 62.6875 C 56.539062 58.203125 55.117188 53.574219 53.710938 48.921875 C 52.855469 46.097656 51.929688 43.34375 50.78125 40.625 C 50.265625 40.625 49.75 40.625 49.21875 40.625 C 48.832031 39.882812 48.445312 39.140625 48.046875 38.378906 C 46.601562 35.820312 44.898438 33.648438 43.015625 31.398438 C 39.433594 26.980469 35.851562 22.179688 35.496094 16.308594 C 36.171875 11.675781 37.652344 8.40625 41.015625 5.125 C 50.34375 -0.703125 63.535156 5.910156 71.875 10.9375 Z M 71.875 10.9375 "/>
<path style=" stroke:none;fill-rule:nonzero;fill:rgb(3.921569%,40.392157%,55.686277%);fill-opacity:1;" d="M 13.914062 200.148438 C 17.28125 202.933594 18.722656 207.007812 20.390625 210.949219 C 20.722656 211.71875 20.722656 211.71875 21.058594 212.503906 C 21.757812 214.128906 22.449219 215.753906 23.144531 217.382812 C 23.84375 219.019531 24.542969 220.660156 25.246094 222.296875 C 25.683594 223.3125 26.117188 224.328125 26.546875 225.34375 C 27.453125 227.6875 27.453125 227.6875 28.90625 229.6875 C 29.246094 228.925781 29.582031 228.167969 29.933594 227.382812 C 31.195312 224.546875 32.46875 221.71875 33.742188 218.886719 C 34.289062 217.664062 34.835938 216.441406 35.382812 215.214844 C 36.167969 213.449219 36.960938 211.6875 37.757812 209.925781 C 37.996094 209.382812 38.238281 208.839844 38.484375 208.28125 C 39.898438 205.167969 41.378906 202.519531 43.75 200 C 47.796875 198.652344 51.128906 198.734375 55.03125 200.292969 C 57.03125 201.5625 57.03125 201.5625 57.8125 203.125 C 57.882812 204.28125 57.90625 205.441406 57.902344 206.601562 C 57.902344 207.679688 57.902344 207.679688 57.902344 208.78125 C 57.898438 209.558594 57.894531 210.335938 57.890625 211.140625 C 57.886719 211.933594 57.886719 212.730469 57.886719 213.550781 C 57.882812 216.097656 57.871094 218.644531 57.859375 221.191406 C 57.855469 222.914062 57.855469 224.640625 57.851562 226.363281 C 57.84375 230.597656 57.828125 234.828125 57.8125 239.0625 C 54.71875 239.0625 51.625 239.0625 48.4375 239.0625 C 48.050781 225.527344 48.050781 225.527344 47.65625 211.71875 C 44.417969 218.996094 44.417969 218.996094 41.183594 226.277344 C 40.777344 227.191406 40.371094 228.101562 39.949219 229.039062 C 39.539062 229.964844 39.125 230.894531 38.699219 231.851562 C 35.863281 237.824219 35.863281 237.824219 33.609375 239.285156 C 33.039062 239.484375 32.472656 239.6875 31.882812 239.890625 C 31.324219 240.109375 30.765625 240.328125 30.191406 240.554688 C 26.773438 240.671875 24.472656 239.726562 21.875 237.5 C 19.828125 234.332031 18.398438 230.964844 16.945312 227.492188 C 16.34375 226.125 16.34375 226.125 15.734375 224.734375 C 14.636719 222.226562 13.5625 219.710938 12.5 217.1875 C 11.726562 215.382812 10.953125 213.578125 10.15625 211.71875 C 9.898438 220.742188 9.640625 229.765625 9.375 239.0625 C 5.121094 239.449219 5.121094 239.449219 0.78125 239.84375 C -0.441406 238.621094 -0.117188 237.421875 -0.136719 235.722656 C -0.148438 235.015625 -0.160156 234.304688 -0.167969 233.574219 C -0.175781 232.800781 -0.179688 232.03125 -0.1875 231.234375 C -0.195312 230.050781 -0.195312 230.050781 -0.207031 228.84375 C -0.214844 227.167969 -0.222656 225.496094 -0.230469 223.820312 C -0.242188 221.257812 -0.277344 218.699219 -0.3125 216.136719 C -0.320312 214.511719 -0.328125 212.886719 -0.332031 211.265625 C -0.347656 210.496094 -0.359375 209.730469 -0.375 208.9375 C -0.355469 203.628906 -0.355469 203.628906 1.4375 201.101562 C 5.296875 198.582031 9.742188 198.382812 13.914062 200.148438 Z M 13.914062 200.148438 "/>
<path style=" stroke:none;fill-rule:nonzero;fill:rgb(89.411765%,57.254905%,3.921569%);fill-opacity:1;" d="M 171.386719 199.757812 C 172.394531 199.742188 173.402344 199.730469 174.4375 199.71875 C 180.691406 199.714844 185.945312 199.789062 190.96875 203.90625 C 194.027344 207.820312 193.144531 213.019531 193.15625 217.746094 C 193.164062 219.371094 193.1875 220.996094 193.210938 222.621094 C 193.21875 223.664062 193.222656 224.707031 193.226562 225.746094 C 193.234375 227.160156 193.234375 227.160156 193.246094 228.605469 C 192.859375 232.277344 191.675781 234.886719 189.0625 237.5 C 192.542969 240.59375 192.542969 240.59375 196.09375 243.75 C 195.707031 244.523438 195.707031 244.523438 195.3125 245.3125 C 186.089844 245.75 186.089844 245.75 182.8125 242.96875 C 182.136719 242.164062 182.136719 242.164062 181.445312 241.34375 C 179.167969 239.398438 177.921875 239.464844 174.960938 239.476562 C 174.042969 239.464844 173.125 239.457031 172.183594 239.445312 C 170.261719 239.449219 168.339844 239.457031 166.421875 239.460938 C 160.105469 239.386719 156.253906 239.046875 151.644531 234.464844 C 147.984375 227.457031 148.976562 213.605469 150.972656 206.070312 C 151.960938 203.753906 153.316406 202.785156 155.46875 201.5625 C 160.746094 199.496094 165.792969 199.742188 171.386719 199.757812 Z M 160.9375 208.59375 C 160.554688 212.210938 160.648438 215.847656 160.644531 219.484375 C 160.625 220.5 160.605469 221.515625 160.585938 222.5625 C 160.582031 223.535156 160.582031 224.507812 160.578125 225.507812 C 160.570312 226.402344 160.566406 227.296875 160.558594 228.21875 C 160.726562 230.539062 160.726562 230.539062 162.398438 231.9375 C 164.457031 233.019531 165.847656 233.050781 168.164062 232.960938 C 168.859375 232.9375 169.558594 232.917969 170.277344 232.894531 C 171.066406 232.855469 171.066406 232.855469 171.875 232.8125 C 170.144531 230.605469 168.410156 228.519531 166.40625 226.5625 C 176.246094 226.707031 176.246094 226.707031 178.941406 228.265625 C 179.980469 229.34375 179.980469 229.34375 181.25 231.25 C 182.023438 230.992188 182.796875 230.734375 183.59375 230.46875 C 183.632812 227.382812 183.660156 224.296875 183.679688 221.207031 C 183.691406 219.640625 183.710938 218.074219 183.730469 216.507812 C 183.734375 215.523438 183.742188 214.542969 183.746094 213.53125 C 183.753906 212.625 183.761719 211.714844 183.769531 210.777344 C 183.824219 208.484375 183.824219 208.484375 182.03125 207.03125 C 180.011719 206.789062 180.011719 206.789062 177.660156 206.824219 C 176.792969 206.820312 175.921875 206.820312 175.027344 206.816406 C 174.117188 206.824219 173.203125 206.828125 172.265625 206.835938 C 171.355469 206.828125 170.441406 206.824219 169.503906 206.816406 C 168.632812 206.820312 167.765625 206.820312 166.871094 206.824219 C 165.671875 206.828125 165.671875 206.828125 164.445312 206.828125 C 162.363281 206.839844 162.363281 206.839844 160.9375 208.59375 Z M 160.9375 208.59375 "/>
<path style=" stroke:none;fill-rule:nonzero;fill:rgb(5.490196%,40.784314%,55.686277%);fill-opacity:1;" d="M 63.28125 211.71875 C 64.828125 211.699219 66.375 211.683594 67.921875 211.671875 C 68.78125 211.660156 69.640625 211.652344 70.527344 211.640625 C 72.65625 211.71875 72.65625 211.71875 73.4375 212.5 C 73.503906 213.949219 73.519531 215.398438 73.515625 216.847656 C 73.511719 217.640625 73.511719 218.429688 73.507812 219.246094 C 73.5 220.257812 73.492188 221.269531 73.484375 222.3125 C 73.460938 227.125 73.460938 227.125 73.4375 232.03125 C 83.878906 232.417969 83.878906 232.417969 94.53125 232.8125 C 94.273438 225.851562 94.015625 218.890625 93.75 211.71875 C 97.101562 211.71875 100.453125 211.71875 103.90625 211.71875 C 103.945312 216.222656 103.972656 220.726562 103.992188 225.230469 C 104 226.765625 104.011719 228.296875 104.023438 229.828125 C 104.042969 232.03125 104.050781 234.234375 104.058594 236.4375 C 104.066406 237.121094 104.074219 237.808594 104.082031 238.511719 C 104.082031 239.472656 104.082031 239.472656 104.082031 240.453125 C 104.085938 241.015625 104.089844 241.578125 104.09375 242.15625 C 103.78125 244.820312 102.835938 246.445312 100.828125 248.195312 C 98.390625 249.746094 96.421875 250.097656 93.597656 250.089844 C 92.941406 250.089844 92.285156 250.089844 91.605469 250.089844 C 90.902344 250.085938 90.195312 250.082031 89.46875 250.078125 C 88.742188 250.074219 88.019531 250.074219 87.269531 250.074219 C 84.953125 250.070312 82.636719 250.058594 80.320312 250.046875 C 78.753906 250.042969 77.183594 250.042969 75.613281 250.039062 C 71.761719 250.03125 67.914062 250.015625 64.0625 250 C 63.765625 248.183594 63.503906 246.359375 63.28125 244.53125 C 64.886719 242.925781 68.246094 243.550781 70.460938 243.503906 C 71.101562 243.488281 71.742188 243.46875 72.402344 243.453125 C 74.457031 243.402344 76.511719 243.355469 78.5625 243.3125 C 79.953125 243.277344 81.34375 243.242188 82.730469 243.207031 C 86.144531 243.125 89.554688 243.046875 92.96875 242.96875 C 93.484375 241.679688 94 240.390625 94.53125 239.0625 C 93.550781 239.09375 93.550781 239.09375 92.550781 239.125 C 90.097656 239.191406 87.648438 239.242188 85.195312 239.277344 C 83.621094 239.304688 82.050781 239.355469 80.476562 239.40625 C 74.613281 239.480469 69.996094 239.40625 65.625 235.15625 C 63.195312 232.570312 63 230.789062 63.050781 227.28125 C 63.0625 225.921875 63.0625 225.921875 63.074219 224.535156 C 63.09375 223.59375 63.113281 222.652344 63.132812 221.679688 C 63.144531 220.726562 63.15625 219.769531 63.167969 218.785156 C 63.195312 216.429688 63.234375 214.074219 63.28125 211.71875 Z M 63.28125 211.71875 "/>
<path style=" stroke:none;fill-rule:nonzero;fill:rgb(89.019608%,57.647061%,6.27451%);fill-opacity:1;" d="M 124.0625 199.847656 C 125.042969 199.851562 125.042969 199.851562 126.042969 199.855469 C 128.121094 199.863281 130.199219 199.882812 132.273438 199.902344 C 133.6875 199.910156 135.101562 199.917969 136.511719 199.921875 C 139.96875 199.941406 143.421875 199.96875 146.875 200 C 146.875 202.320312 146.875 204.640625 146.875 207.03125 C 133.339844 207.417969 133.339844 207.417969 119.53125 207.8125 C 119.53125 210.132812 119.53125 212.453125 119.53125 214.84375 C 121.375 215.765625 122.558594 215.746094 124.617188 215.789062 C 125.675781 215.824219 125.675781 215.824219 126.757812 215.855469 C 128.238281 215.898438 129.714844 215.933594 131.195312 215.960938 C 136.652344 216.144531 141.257812 216.820312 145.703125 220.265625 C 147.542969 224.023438 147.480469 227.925781 146.875 232.03125 C 145.46875 235.621094 143.378906 236.816406 140.058594 238.410156 C 137.097656 239.496094 134.296875 239.449219 131.175781 239.367188 C 130.203125 239.359375 130.203125 239.359375 129.207031 239.355469 C 127.152344 239.335938 125.101562 239.296875 123.046875 239.257812 C 121.644531 239.242188 120.242188 239.226562 118.839844 239.214844 C 115.425781 239.179688 112.007812 239.128906 108.59375 239.0625 C 108.5625 237.238281 108.5625 235.417969 108.59375 233.59375 C 110.054688 232.132812 112.515625 232.640625 114.46875 232.59375 C 114.980469 232.578125 115.492188 232.5625 116.019531 232.550781 C 117.660156 232.503906 119.304688 232.460938 120.945312 232.421875 C 123.101562 232.367188 125.253906 232.3125 127.40625 232.25 C 128.847656 232.214844 128.847656 232.214844 130.320312 232.179688 C 132.945312 232.101562 132.945312 232.101562 135.9375 231.25 C 136.324219 227.382812 136.324219 227.382812 136.71875 223.4375 C 135.804688 223.464844 134.886719 223.492188 133.945312 223.519531 C 120.4375 223.804688 120.4375 223.804688 114.0625 221.09375 C 113.546875 220.890625 113.035156 220.6875 112.503906 220.480469 C 111.179688 219.726562 111.179688 219.726562 109.375 217.1875 C 108.769531 213.207031 108.601562 209.449219 109.375 205.46875 C 113.515625 200.1875 117.789062 199.765625 124.0625 199.847656 Z M 124.0625 199.847656 "/>
<path style=" stroke:none;fill-rule:nonzero;fill:rgb(89.411765%,56.862748%,2.745098%);fill-opacity:1;" d="M 196.875 200 C 199.96875 200 203.0625 200 206.25 200 C 206.507812 210.3125 206.765625 220.625 207.03125 231.25 C 210.308594 231.90625 213.128906 232.179688 216.445312 232.277344 C 217.21875 232.304688 217.21875 232.304688 218.003906 232.328125 C 219.636719 232.378906 221.269531 232.425781 222.898438 232.46875 C 224.011719 232.503906 225.125 232.539062 226.234375 232.574219 C 228.949219 232.65625 231.660156 232.734375 234.375 232.8125 C 234.375 234.875 234.375 236.9375 234.375 239.0625 C 230.484375 239.121094 226.59375 239.164062 222.703125 239.191406 C 221.378906 239.203125 220.058594 239.21875 218.738281 239.238281 C 216.828125 239.269531 214.921875 239.28125 213.011719 239.292969 C 212.136719 239.308594 212.136719 239.308594 211.246094 239.328125 C 206.179688 239.328125 202.003906 238.402344 198.066406 235.089844 C 196.34375 231.792969 196.484375 228.917969 196.570312 225.253906 C 196.574219 224.53125 196.578125 223.808594 196.582031 223.0625 C 196.601562 220.761719 196.640625 218.460938 196.679688 216.164062 C 196.695312 214.597656 196.710938 213.035156 196.722656 211.472656 C 196.757812 207.648438 196.8125 203.824219 196.875 200 Z M 196.875 200 "/>
<path style=" stroke:none;fill-rule:nonzero;fill:rgb(89.411765%,61.176473%,14.117648%);fill-opacity:1;" d="M 246.875 226.5625 C 249.445312 228.683594 249.929688 229.960938 250.390625 233.25 C 250 235.9375 250 235.9375 248.730469 237.792969 C 246.433594 239.363281 244.96875 239.785156 242.1875 239.84375 C 239.429688 238.589844 238.414062 237.703125 236.71875 235.15625 C 236.542969 232.226562 236.902344 229.671875 238.71875 227.34375 C 241.488281 226.207031 243.933594 225.929688 246.875 226.5625 Z M 239.84375 230.46875 C 239.84375 232.273438 239.84375 234.078125 239.84375 235.9375 C 240.101562 235.9375 240.359375 235.9375 240.625 235.9375 C 240.625 234.132812 240.625 232.328125 240.625 230.46875 C 240.367188 230.46875 240.109375 230.46875 239.84375 230.46875 Z M 246.875 231.25 C 246.359375 232.28125 245.84375 233.3125 245.3125 234.375 C 246.085938 234.375 246.859375 234.375 247.65625 234.375 C 247.398438 233.34375 247.140625 232.3125 246.875 231.25 Z M 242.96875 234.375 C 242.96875 235.148438 242.96875 235.921875 242.96875 236.71875 C 243.484375 236.460938 244 236.203125 244.53125 235.9375 C 244.015625 235.421875 243.5 234.90625 242.96875 234.375 Z M 242.96875 234.375 "/>
<path style=" stroke:none;fill-rule:nonzero;fill:rgb(13.333334%,45.882353%,59.215689%);fill-opacity:1;" d="M 78.90625 39.0625 C 85.160156 38.449219 85.160156 38.449219 88.234375 40.867188 C 91.417969 45.023438 91.417969 45.023438 91.328125 46.996094 C 91.191406 47.601562 91.058594 48.207031 90.917969 48.828125 C 90.734375 49.734375 90.734375 49.734375 90.546875 50.660156 C 89.679688 52.742188 88.59375 53.492188 86.71875 54.6875 C 86.425781 54.121094 86.132812 53.554688 85.832031 52.972656 C 83.183594 47.898438 83.183594 47.898438 79.734375 43.359375 C 79.203125 42.714844 78.671875 42.070312 78.125 41.40625 C 78.382812 40.632812 78.640625 39.859375 78.90625 39.0625 Z M 78.90625 39.0625 "/>
<path style=" stroke:none;fill-rule:nonzero;fill:rgb(45.882353%,64.313728%,70.19608%);fill-opacity:1;" d="M 120.3125 159.375 C 124.480469 163.542969 128.644531 167.707031 132.8125 171.875 C 132.554688 172.390625 132.296875 172.90625 132.03125 173.4375 C 129.390625 172.246094 127.261719 170.699219 125 168.898438 C 124.339844 168.375 123.679688 167.855469 123 167.320312 C 121.0625 165.597656 119.527344 163.785156 117.96875 161.71875 C 119 161.976562 120.03125 162.234375 121.09375 162.5 C 120.835938 161.46875 120.578125 160.4375 120.3125 159.375 Z M 120.3125 159.375 "/>
<path style=" stroke:none;fill-rule:nonzero;fill:rgb(90.196079%,58.431375%,6.666667%);fill-opacity:1;" d="M 241.40625 227.34375 C 244.238281 227.195312 244.238281 227.195312 246.875 227.34375 C 246.875 227.859375 246.875 228.375 246.875 228.90625 C 246.101562 228.90625 245.328125 228.90625 244.53125 228.90625 C 245.046875 229.164062 245.5625 229.421875 246.09375 229.6875 C 246.078125 230.414062 246.0625 231.136719 246.046875 231.882812 C 245.96875 234.394531 245.96875 234.394531 246.875 236.71875 C 246.101562 236.976562 245.328125 237.234375 244.53125 237.5 C 244.273438 236.210938 244.015625 234.921875 243.75 233.59375 C 243.234375 233.59375 242.71875 233.59375 242.1875 233.59375 C 242.1875 234.882812 242.1875 236.171875 242.1875 237.5 C 241.414062 237.242188 240.640625 236.984375 239.84375 236.71875 C 239.800781 235.597656 239.769531 234.472656 239.746094 233.351562 C 239.726562 232.722656 239.710938 232.097656 239.691406 231.453125 C 239.84375 229.6875 239.84375 229.6875 241.40625 227.34375 Z M 241.40625 227.34375 "/>
<path style=" stroke:none;fill-rule:nonzero;fill:rgb(34.509805%,58.431375%,67.843139%);fill-opacity:1;" d="M 120.3125 159.375 C 122.136719 161.199219 123.957031 163.019531 125.78125 164.84375 C 125.78125 165.617188 125.78125 166.390625 125.78125 167.1875 C 122.359375 166.792969 120.457031 164.703125 117.96875 162.5 C 118.484375 162.242188 119 161.984375 119.53125 161.71875 C 120.046875 161.976562 120.5625 162.234375 121.09375 162.5 C 120.835938 161.46875 120.578125 160.4375 120.3125 159.375 Z M 120.3125 159.375 "/>
<path style=" stroke:none;fill-rule:nonzero;fill:rgb(89.411765%,63.921571%,21.176471%);fill-opacity:1;" d="M 246.875 226.5625 C 246.875 226.820312 246.875 227.078125 246.875 227.34375 C 245.070312 227.34375 243.265625 227.34375 241.40625 227.34375 C 240.890625 229.921875 240.375 232.5 239.84375 235.15625 C 239.328125 234.125 238.8125 233.09375 238.28125 232.03125 C 237.765625 233.0625 237.25 234.09375 236.71875 235.15625 C 237.09375 229.425781 237.09375 229.425781 238.71875 227.34375 C 241.519531 226.195312 243.859375 226.410156 246.875 226.5625 Z M 246.875 226.5625 "/>
<path style=" stroke:none;fill-rule:nonzero;fill:rgb(36.470589%,58.823532%,67.058825%);fill-opacity:1;" d="M 95.3125 114.0625 C 96.085938 114.320312 96.859375 114.578125 97.65625 114.84375 C 97.914062 116.390625 98.171875 117.9375 98.4375 119.53125 C 97.664062 118.757812 96.890625 117.984375 96.09375 117.1875 C 94.546875 117.960938 94.546875 117.960938 92.96875 118.75 C 92.96875 119.265625 92.96875 119.78125 92.96875 120.3125 C 92.453125 120.054688 91.9375 119.796875 91.40625 119.53125 C 92.695312 117.726562 93.984375 115.921875 95.3125 114.0625 Z M 95.3125 114.0625 "/>
<path style=" stroke:none;fill-rule:nonzero;fill:rgb(36.078432%,59.215689%,68.235296%);fill-opacity:1;" d="M 78.90625 39.0625 C 80.042969 39 81.183594 38.953125 82.324219 38.914062 C 82.957031 38.890625 83.59375 38.863281 84.246094 38.832031 C 84.804688 38.910156 85.363281 38.984375 85.9375 39.0625 C 86.453125 39.835938 86.96875 40.609375 87.5 41.40625 C 84.921875 41.148438 82.34375 40.890625 79.6875 40.625 C 79.429688 41.140625 79.171875 41.65625 78.90625 42.1875 C 78.90625 41.15625 78.90625 40.125 78.90625 39.0625 Z M 78.90625 39.0625 "/>
<path style=" stroke:none;fill-rule:nonzero;fill:rgb(87.843138%,68.627453%,34.901962%);fill-opacity:1;" d="M 192.96875 241.40625 C 194 242.4375 195.03125 243.46875 196.09375 244.53125 C 192.925781 245.296875 189.96875 245.375 186.71875 245.3125 C 186.71875 244.796875 186.71875 244.28125 186.71875 243.75 C 188.78125 243.492188 190.84375 243.234375 192.96875 242.96875 C 192.96875 242.453125 192.96875 241.9375 192.96875 241.40625 Z M 192.96875 241.40625 "/>
<path style=" stroke:none;fill-rule:nonzero;fill:rgb(37.254903%,60.000002%,69.411767%);fill-opacity:1;" d="M 246.09375 207.03125 C 248.4375 209.863281 248.4375 209.863281 248.4375 212.5 C 244.628906 211.132812 244.628906 211.132812 243.75 209.375 C 244.265625 209.375 244.78125 209.375 245.3125 209.375 C 245.570312 208.601562 245.828125 207.828125 246.09375 207.03125 Z M 246.09375 207.03125 "/>
</g>
</svg>
