<?xml version="1.0" encoding="UTF-8"?>
<svg xmlns="http://www.w3.org/2000/svg" xmlns:xlink="http://www.w3.org/1999/xlink" width="250px" height="250px" viewBox="0 0 250 250" version="1.1">
<g id="surface1">
<path style=" stroke:none;fill-rule:nonzero;fill:rgb(0.392157%,46.27451%,73.333335%);fill-opacity:1;" d="M 157.9375 34.230469 C 164.847656 41.492188 165.320312 49.804688 165.257812 59.355469 C 165.261719 60.550781 165.265625 61.75 165.269531 62.949219 C 165.273438 65.445312 165.265625 67.945312 165.25 70.441406 C 165.234375 73.628906 165.242188 76.8125 165.261719 80 C 165.273438 82.46875 165.269531 84.9375 165.261719 87.410156 C 165.261719 88.582031 165.261719 89.757812 165.269531 90.929688 C 165.3125 99.484375 164.433594 106.300781 158.460938 112.785156 C 150.671875 119.742188 142.566406 120.535156 132.550781 120.554688 C 130.503906 120.574219 128.460938 120.59375 126.414062 120.613281 C 123.214844 120.636719 120.015625 120.65625 116.8125 120.667969 C 113.710938 120.683594 110.605469 120.714844 107.5 120.75 C 106.554688 120.75 105.605469 120.75 104.628906 120.75 C 95.367188 120.855469 88.324219 122.769531 81.25 128.90625 C 74.230469 136.261719 71.820312 143.960938 71.65625 153.894531 C 71.640625 154.5625 71.625 155.230469 71.613281 155.921875 C 71.550781 158.773438 71.496094 161.628906 71.445312 164.480469 C 71.402344 166.566406 71.359375 168.652344 71.3125 170.738281 C 71.304688 171.390625 71.292969 172.039062 71.28125 172.710938 C 71.183594 177.253906 71.183594 177.253906 70.3125 178.125 C 67.355469 178.324219 64.386719 178.269531 61.425781 178.273438 C 60.605469 178.28125 59.789062 178.289062 58.945312 178.300781 C 50.289062 178.316406 42.65625 177.78125 35.9375 171.875 C 25.171875 161.109375 23.15625 143.429688 23.046875 128.90625 C 23.15625 115.671875 24.507812 100.9375 33.789062 90.675781 C 40.792969 84.335938 49.371094 82.5625 58.519531 82.636719 C 59.640625 82.636719 59.640625 82.636719 60.785156 82.632812 C 63.238281 82.636719 65.6875 82.648438 68.140625 82.660156 C 69.847656 82.664062 71.554688 82.664062 73.261719 82.667969 C 77.742188 82.671875 82.222656 82.6875 86.703125 82.707031 C 91.277344 82.722656 95.855469 82.726562 100.433594 82.734375 C 109.402344 82.753906 118.375 82.78125 127.34375 82.8125 C 127.34375 79.71875 127.34375 76.625 127.34375 73.4375 C 111.875 73.4375 96.40625 73.4375 80.46875 73.4375 C 80.421875 69.085938 80.371094 64.734375 80.320312 60.253906 C 80.289062 58.21875 80.289062 58.21875 80.257812 56.144531 C 80.191406 48.957031 80.390625 42.542969 84.03125 36.132812 C 100.359375 21.0625 141.074219 20.050781 157.9375 34.230469 Z M 92.1875 52.34375 C 91.757812 55.410156 92 57.578125 93.75 60.15625 C 96.636719 62.078125 98.996094 62.335938 102.34375 61.71875 C 104.675781 60.164062 105.941406 59.074219 106.621094 56.296875 C 106.84375 53.234375 106.421875 51.820312 104.6875 49.21875 C 102.101562 47.492188 100.664062 47.023438 97.609375 47.226562 C 94.730469 48.042969 93.652344 49.871094 92.1875 52.34375 Z M 92.1875 52.34375 "/>
<path style=" stroke:none;fill-rule:nonzero;fill:rgb(99.215686%,74.901962%,2.745098%);fill-opacity:1;" d="M 174.21875 72.65625 C 177.746094 72.558594 181.273438 72.488281 184.804688 72.441406 C 186 72.421875 187.199219 72.394531 188.394531 72.363281 C 196.78125 72.128906 203.070312 72.714844 209.804688 78.179688 C 220.675781 90.855469 223.503906 110.324219 222.445312 126.613281 C 221.378906 139.164062 219.121094 152.355469 209.429688 161.238281 C 202.890625 166.34375 195.585938 167.429688 187.503906 167.363281 C 186.371094 167.363281 186.371094 167.363281 185.214844 167.367188 C 182.738281 167.363281 180.261719 167.351562 177.78125 167.339844 C 176.058594 167.335938 174.332031 167.335938 172.609375 167.332031 C 168.082031 167.328125 163.554688 167.3125 159.03125 167.292969 C 154.40625 167.277344 149.78125 167.273438 145.15625 167.265625 C 136.09375 167.246094 127.03125 167.21875 117.96875 167.1875 C 117.96875 170.28125 117.96875 173.375 117.96875 176.5625 C 133.4375 176.5625 148.90625 176.5625 164.84375 176.5625 C 164.90625 181.171875 164.972656 185.78125 165.039062 190.527344 C 165.066406 191.964844 165.097656 193.402344 165.125 194.886719 C 165.292969 209.183594 165.292969 209.183594 160.457031 214.726562 C 150.84375 224.035156 133.734375 224.6875 121.09375 225 C 110.597656 224.8125 98.339844 223.984375 89.84375 217.1875 C 89.183594 216.734375 88.523438 216.285156 87.84375 215.820312 C 83.15625 211.496094 80.765625 206.082031 80.261719 199.722656 C 80.253906 198.8125 80.246094 197.90625 80.242188 196.96875 C 80.238281 196.464844 80.230469 195.957031 80.226562 195.4375 C 80.210938 193.777344 80.207031 192.121094 80.207031 190.464844 C 80.203125 189.296875 80.195312 188.132812 80.191406 186.96875 C 80.179688 184.535156 80.179688 182.097656 80.179688 179.664062 C 80.179688 176.5625 80.15625 173.460938 80.132812 170.355469 C 80.113281 167.953125 80.109375 165.546875 80.113281 163.144531 C 80.109375 162 80.101562 160.859375 80.089844 159.714844 C 80.015625 151.792969 80.804688 145.550781 85.304688 138.867188 C 93.46875 130.882812 101.921875 129.339844 113.058594 129.398438 C 114.601562 129.386719 116.144531 129.378906 117.683594 129.367188 C 121.449219 129.34375 125.210938 129.34375 128.972656 129.347656 C 131.09375 129.347656 133.21875 129.339844 135.339844 129.320312 C 137.328125 129.308594 139.3125 129.304688 141.296875 129.320312 C 150.949219 129.238281 158.472656 126.605469 165.378906 119.796875 C 171.523438 113.070312 173.636719 105.46875 173.761719 96.535156 C 173.777344 95.851562 173.792969 95.164062 173.808594 94.457031 C 173.851562 92.285156 173.890625 90.113281 173.925781 87.9375 C 173.957031 86.457031 173.984375 84.976562 174.015625 83.496094 C 174.09375 79.882812 174.15625 76.269531 174.21875 72.65625 Z M 141.0625 189.746094 C 139.027344 192.515625 138.664062 194.203125 139.0625 197.65625 C 141.066406 201.042969 141.066406 201.042969 144.484375 202.773438 C 147.539062 202.976562 148.976562 202.507812 151.5625 200.78125 C 153.296875 198.179688 153.71875 196.765625 153.496094 193.703125 C 152.816406 190.925781 151.550781 189.835938 149.21875 188.28125 C 146.070312 187.578125 143.695312 187.722656 141.0625 189.746094 Z M 141.0625 189.746094 "/>
</g>
</svg>
