<?xml version="1.0" encoding="UTF-8"?>
<svg version="1.1" xmlns="http://www.w3.org/2000/svg" width="320" height="320">
<path d="M0 0 C8.8432878 9.29390119 9.44755671 19.93466505 9.37109375 32.15625 C9.37379489 33.68981674 9.37768245 35.2233818 9.38269043 36.75694275 C9.38855459 39.95507273 9.38012211 43.15275281 9.36132812 46.35083008 C9.33852036 50.42822798 9.35169191 54.50457346 9.37561798 58.58193302 C9.39014363 61.74348229 9.38543959 64.90478623 9.37510681 68.06634331 C9.37245916 69.56888393 9.3756394 71.07144762 9.38502502 72.57396126 C9.43844001 83.52333104 8.31434007 92.2479033 0.66796875 100.55078125 C-9.29823611 109.45222063 -19.6731349 110.46965536 -32.49609375 110.4921875 C-35.1132835 110.51734463 -37.73047095 110.5427427 -40.34765625 110.56835938 C-44.44430553 110.59906776 -48.54097494 110.62133494 -52.63769531 110.63989258 C-56.6115025 110.65896475 -60.58495356 110.70107072 -64.55859375 110.7421875 C-65.77243744 110.74230331 -66.98628113 110.74241913 -68.23690796 110.74253845 C-80.09008774 110.87946934 -89.10366549 113.32956142 -98.16015625 121.18359375 C-107.14671748 130.59972291 -110.23194154 140.45184478 -110.44140625 153.16796875 C-110.45981567 154.02416809 -110.4782251 154.88036743 -110.49719238 155.76251221 C-110.57569655 159.41495598 -110.64391928 163.06757137 -110.71240234 166.72021484 C-110.76396122 169.39039695 -110.82123874 172.06041274 -110.87890625 174.73046875 C-110.89248169 175.56269958 -110.90605713 176.39493042 -110.92004395 177.25238037 C-111.04725878 183.07069628 -111.04725878 183.07069628 -112.16015625 184.18359375 C-115.94456907 184.44022991 -119.74310106 184.36884461 -123.53515625 184.37109375 C-124.58316406 184.38333984 -125.63117188 184.39558594 -126.7109375 184.40820312 C-137.79157723 184.42874819 -147.55957459 183.74168066 -156.16015625 176.18359375 C-169.94214464 162.40160536 -172.51997647 139.77578811 -172.66015625 121.18359375 C-172.51994874 104.24330078 -170.78873039 85.38239927 -158.91015625 72.24609375 C-149.94450455 64.13148625 -138.96638516 61.86167571 -127.25585938 61.95654297 C-125.82033218 61.95610489 -125.82033218 61.95610489 -124.35580444 61.95565796 C-121.21757691 61.95704245 -118.0795919 61.97256202 -114.94140625 61.98828125 C-112.75565724 61.99201451 -110.56990656 61.99486 -108.38415527 61.99685669 C-102.64997686 62.00446847 -96.91590084 62.02409582 -91.1817627 62.04626465 C-85.32301213 62.06677606 -79.46424492 62.07586971 -73.60546875 62.0859375 C-62.1236531 62.10734407 -50.64191321 62.14145027 -39.16015625 62.18359375 C-39.16015625 58.22359375 -39.16015625 54.26359375 -39.16015625 50.18359375 C-58.96015625 50.18359375 -78.76015625 50.18359375 -99.16015625 50.18359375 C-99.22203125 44.61484375 -99.28390625 39.04609375 -99.34765625 33.30859375 C-99.38862427 30.70428467 -99.38862427 30.70428467 -99.43041992 28.04736328 C-99.51446808 18.84974129 -99.2599407 10.63921438 -94.59765625 2.43359375 C-73.69849135 -16.85794308 -21.58477413 -18.1499457 0 0 Z M-84.16015625 23.18359375 C-84.70950983 27.10754788 -84.39953474 29.88345703 -82.16015625 33.18359375 C-78.46685967 35.64579147 -75.44522185 35.97558058 -71.16015625 35.18359375 C-68.17632795 33.19437489 -66.55738784 31.79856807 -65.68359375 28.24609375 C-65.40124692 24.32295883 -65.94090539 22.51247004 -68.16015625 19.18359375 C-71.47230373 16.97549543 -73.31006048 16.37345483 -77.22265625 16.6328125 C-80.90700654 17.68017821 -82.28323816 20.01629448 -84.16015625 23.18359375 Z " fill="#0176BB" transform="translate(202.16015625,43.81640625)"/>
<path d="M0 0 C4.51651109 -0.12483978 9.03207334 -0.2149125 13.54980469 -0.2746582 C15.0822095 -0.29959759 16.61449792 -0.33356266 18.14648438 -0.37719727 C28.87999938 -0.67496123 36.92967535 0.07309025 45.55078125 7.0703125 C59.46313243 23.29624758 63.08456247 48.21547706 61.72851562 69.06469727 C60.36323398 85.12916658 57.47406098 102.01663994 45.0703125 113.3828125 C36.70094795 119.9203916 27.34962225 121.30998796 17.00390625 121.22705078 C15.5537487 121.22748886 15.5537487 121.22748886 14.07429504 121.22793579 C10.9036029 121.22655113 7.7331507 121.21103074 4.5625 121.1953125 C2.35433073 121.1915793 0.1461598 121.18873378 -2.06201172 121.18673706 C-7.85537339 121.17912481 -13.64863374 121.15949704 -19.44195557 121.1373291 C-25.36102935 121.11681872 -31.28011962 121.10772426 -37.19921875 121.09765625 C-48.79952352 121.07624885 -60.39975331 121.04214206 -72 121 C-72 124.96 -72 128.92 -72 133 C-52.2 133 -32.4 133 -12 133 C-11.9175 138.89875 -11.835 144.7975 -11.75 150.875 C-11.71358398 152.71562012 -11.67716797 154.55624023 -11.63964844 156.45263672 C-11.42688189 174.75471029 -11.42688189 174.75471029 -17.61450195 181.85180664 C-29.91824403 193.76598432 -51.82239688 194.60106251 -68 195 C-81.43550645 194.76140394 -97.12652177 193.69878259 -108 185 C-108.845625 184.4225 -109.69125 183.845 -110.5625 183.25 C-116.55753225 177.71612407 -119.61884937 170.78321638 -120.26742554 162.64396667 C-120.27504913 161.48166031 -120.28267273 160.31935394 -120.29052734 159.12182617 C-120.29724457 158.47362411 -120.30396179 157.82542206 -120.31088257 157.15757751 C-120.32972407 155.03596111 -120.3337797 152.91466338 -120.3359375 150.79296875 C-120.3423753 149.30235164 -120.34910437 147.81173577 -120.35610962 146.32112122 C-120.36804796 143.203553 -120.37179403 140.0860953 -120.37060547 136.96850586 C-120.37040253 132.99768336 -120.39769356 129.02757853 -120.43214989 125.05692577 C-120.4545223 121.97944462 -120.45843986 118.90213334 -120.45738602 115.82457924 C-120.45972687 114.36191652 -120.4684638 112.89924802 -120.48405075 111.43666649 C-120.58201978 101.29438483 -119.56965844 93.30349254 -113.8125 84.75 C-103.35905975 74.52885842 -92.53994505 72.55732121 -78.28515625 72.62890625 C-76.31121492 72.61596926 -74.33727345 72.60300915 -72.36334133 72.58873653 C-67.54737518 72.55897601 -62.73132156 72.56222176 -57.9152832 72.56420898 C-55.19811899 72.56425048 -52.48134829 72.55355336 -49.76426697 72.53245544 C-47.22214873 72.51392528 -44.67983957 72.51171139 -42.13771057 72.52870178 C-29.78696531 72.42259563 -20.15351039 69.05392556 -11.31640625 60.33984375 C-3.4496592 51.72761943 -0.74336627 41.9985214 -0.5859375 30.56640625 C-0.56657135 29.68846909 -0.5472052 28.81053192 -0.5272522 27.9059906 C-0.46787262 25.1249233 -0.42123883 22.34381367 -0.375 19.5625 C-0.33678184 17.66730049 -0.29772792 15.77211764 -0.2578125 13.87695312 C-0.16220571 9.25143871 -0.07802245 4.62584308 0 0 Z M-42.4375 149.875 C-45.04432356 153.42028004 -45.50992194 155.58067649 -45 160 C-42.4349661 164.33535741 -42.4349661 164.33535741 -38.0625 166.55078125 C-34.14990423 166.81013892 -32.31214748 166.20809832 -29 164 C-26.78074914 160.67112371 -26.24109067 158.86063492 -26.5234375 154.9375 C-27.39723159 151.38502568 -29.0161717 149.98921886 -32 148 C-36.03208612 147.09777083 -39.07139579 147.28568907 -42.4375 149.875 Z " fill="#FDBF07" transform="translate(223,93)"/>
</svg>
